<svg width="18" height="18" viewBox="0 0 18 18" fill="none" xmlns="http://www.w3.org/2000/svg">
<path d="M15.3108 6.1362C15.2064 6.2172 13.3632 7.2558 13.3632 9.5652C13.3632 12.2364 15.7086 13.1814 15.7788 13.2048C15.768 13.2624 15.4062 14.499 14.5422 15.759C13.7718 16.8678 12.9672 17.9748 11.7432 17.9748C10.5192 17.9748 10.2042 17.2638 8.7912 17.2638C7.4142 17.2638 6.9246 17.9982 5.805 17.9982C4.6854 17.9982 3.9042 16.9722 3.006 15.7122C1.9656 14.2326 1.125 11.934 1.125 9.7524C1.125 6.2532 3.4002 4.3974 5.6394 4.3974C6.8292 4.3974 7.821 5.1786 8.568 5.1786C9.279 5.1786 10.3878 4.3506 11.7414 4.3506C12.2544 4.3506 14.0976 4.3974 15.3108 6.1362ZM11.0988 2.8692C11.6586 2.205 12.0546 1.2834 12.0546 0.3618C12.0546 0.234 12.0438 0.1044 12.0204 0C11.1096 0.0342 10.026 0.6066 9.3726 1.3644C8.8596 1.9476 8.3808 2.8692 8.3808 3.8034C8.3808 3.9438 8.4042 4.0842 8.415 4.1292C8.4726 4.14 8.5662 4.1526 8.6598 4.1526C9.477 4.1526 10.5048 3.6054 11.0988 2.8692Z" fill="#1F2937"/>
</svg>
