<svg width="32" height="32" viewBox="0 0 32 32" fill="none" xmlns="http://www.w3.org/2000/svg">
<path d="M11.135 29.7499C11.27 29.7499 11.4 29.6949 11.495 29.5999C11.59 29.5049 11.64 29.3749 11.635 29.2399C11.635 29.1899 11.595 28.0349 10.835 27.3149C10.51 27.0099 10.115 26.8249 9.65503 26.7749L8.38003 23.1049C9.45003 22.5199 10.27 21.2399 10.625 20.5999C12.35 21.0399 14 20.8699 15.27 20.5599C15.53 21.4349 15.95 22.4099 16.28 23.1099C16.465 23.4999 16.55 23.9349 16.535 24.3749L16.36 29.2399C16.36 29.3749 16.405 29.5099 16.5 29.6049C16.595 29.6999 16.725 29.7599 16.86 29.7599H22.76C23.035 29.7599 23.26 29.5349 23.26 29.2599C23.26 28.0049 22.27 27.3749 21.49 27.1299L21.65 24.1899C21.655 24.0549 21.71 23.9249 21.795 23.8299C23.26 22.1899 23.33 18.1649 23.32 16.9799C23.56 16.8549 23.775 16.7149 23.975 16.5699V17.5749C23.975 18.108 24.1868 18.6193 24.5637 18.9962C24.9407 19.3732 25.4519 19.5849 25.985 19.5849C26.5181 19.5849 27.0294 19.3732 27.4063 18.9962C27.7833 18.6193 27.995 18.108 27.995 17.5749V7.47994C28.095 7.49994 28.16 7.52994 28.205 7.55994C28.77 7.93994 29.575 7.78994 29.99 7.22494C30.33 6.75994 30.505 6.21994 30.505 5.57994C30.5 5.49994 30.425 4.77994 29.775 4.24994C29.24 3.81494 28.5 3.64994 27.53 3.77494C27.515 3.77494 27.11 3.82994 26.535 3.28494C25.94 2.57494 24.415 1.63994 22.595 2.77994C22.105 2.51994 21.11 2.12494 20.255 2.63494C20.135 2.70994 20.05 2.82994 20.02 2.96994C20.015 3.00994 19.845 3.90994 20.405 4.67994C20.735 5.13494 21.23 5.43994 21.88 5.58994V9.01494C21.87 9.23494 21.68 11.1599 19.48 11.0499C19.43 11.0499 18.25 10.9099 17.39 9.14994C17.335 9.01994 16.02 5.98994 13.595 5.19994C12.17 4.73494 10.845 4.88994 9.85503 5.63494C9.08003 6.21994 8.35503 7.07994 7.69003 8.19494C7.39003 8.58494 6.48003 9.50994 5.59503 9.50994H5.57003C5.51003 9.50994 4.39003 9.52494 3.34003 10.6999C1.67503 12.5649 1.13003 16.1449 1.73003 21.3399C1.73003 21.3649 1.74003 21.3899 1.74503 21.4149L3.96003 29.3849C4.02003 29.5999 4.21503 29.7499 4.44003 29.7499H11.13H11.135ZM22.44 4.67494C21.86 4.60494 21.45 4.40994 21.22 4.09994C21.045 3.86494 21 3.59494 20.99 3.40494C21.57 3.27994 22.315 3.77494 22.32 3.77994C22.495 3.90494 22.73 3.89994 22.905 3.77494C24.55 2.56994 25.66 3.79994 25.78 3.94494C25.79 3.95994 25.805 3.97494 25.82 3.98994C26.385 4.53494 26.9 4.71494 27.26 4.76494C27.08 5.21494 26.93 5.82994 26.96 6.58994C26.685 6.66494 26.395 6.77494 26.09 6.92494C26.04 6.94494 24.865 7.48494 25.005 8.92994V12.8199C25.005 12.8799 25.02 13.7899 24.395 14.7349L21.88 11.2649C22.805 10.3899 22.88 9.12994 22.885 9.05494V5.18494C22.885 4.93494 22.695 4.71994 22.445 4.68994L22.44 4.67494ZM10.45 6.43494C11.425 5.70494 12.64 5.93994 13.28 6.14994C13.77 6.30994 14.21 6.59494 14.6 6.93494V11.9199C14.2574 12.0096 13.9448 12.1888 13.6944 12.4393C13.4439 12.6897 13.2647 13.0023 13.175 13.3449H11.065C10.9754 13.0023 10.7961 12.6897 10.5457 12.4393C10.2953 12.1888 9.98267 12.0096 9.64003 11.9199V7.19494C9.90503 6.89994 10.175 6.63994 10.45 6.42994V6.43494ZM8.50003 8.77994L8.53003 8.73494C8.56503 8.67494 8.60503 8.61994 8.64003 8.56494V12.3649C8.64003 12.6399 8.86503 12.8649 9.14003 12.8649C9.68503 12.8649 10.13 13.3099 10.13 13.8549C10.13 14.1299 10.355 14.3549 10.63 14.3549H13.61C13.885 14.3549 14.11 14.1299 14.11 13.8549C14.11 13.3099 14.555 12.8649 15.1 12.8649C15.375 12.8649 15.6 12.6399 15.6 12.3649V8.06494C16.16 8.83994 16.465 9.54494 16.48 9.56994C16.51 9.62994 16.54 9.68494 16.57 9.73994V15.2149H7.67003V9.62994C8.16003 9.21994 8.47503 8.81494 8.50003 8.77994ZM7.60503 22.3499C7.47503 22.3899 7.37003 22.4799 7.30503 22.5999C7.24003 22.7199 7.23503 22.8599 7.28003 22.9899L8.81503 27.4199C8.88503 27.6249 9.08003 27.7499 9.30003 27.7549C10.115 27.7349 10.42 28.2999 10.545 28.7499H8.66003C8.57503 28.3349 8.38503 27.7449 7.92503 27.3099C7.60503 27.0049 7.21503 26.8249 6.76003 26.7699L5.47503 22.5299C6.84503 22.0049 7.92003 20.4649 8.40003 19.6699C8.81503 19.9199 9.23003 20.1199 9.64503 20.2799C9.21003 21.0149 8.42503 22.0899 7.60003 22.3449L7.60503 22.3499ZM17.19 22.6799C16.93 22.1299 16.49 21.1399 16.235 20.2799C16.555 20.1749 16.835 20.0649 17.06 19.9699C17.265 20.9399 17.775 22.1599 18.22 23.1099C18.405 23.4999 18.49 23.9349 18.475 24.3749L18.315 28.7599H17.38L17.535 24.4149C17.555 23.8199 17.435 23.2249 17.185 22.6899L17.19 22.6799ZM22.605 16.2099C22.42 16.2949 22.305 16.4799 22.315 16.6799C22.365 18.0349 22.235 21.8299 21.05 23.1549C20.8133 23.4248 20.6742 23.7665 20.655 24.1249L20.475 27.4799C20.46 27.7349 20.645 27.9649 20.9 27.9999C20.945 28.0049 21.815 28.1449 22.14 28.7449H19.32L19.475 24.3999C19.495 23.8049 19.375 23.2099 19.125 22.6749C18.39 21.1149 17.97 19.8549 17.97 19.2149C17.97 19.0399 17.875 18.8749 17.725 18.7849C17.575 18.6949 17.385 18.6899 17.23 18.7749C17.185 18.7999 12.5 21.2999 8.51503 18.5449C8.39503 18.4649 8.24503 18.4399 8.11003 18.4699C7.97003 18.5049 7.85503 18.5999 7.78503 18.7299C7.40503 19.4799 6.11503 21.4699 4.77503 21.6899C4.7046 21.7016 4.63745 21.7281 4.57805 21.7677C4.51865 21.8073 4.46835 21.8591 4.43052 21.9196C4.39268 21.9802 4.36816 22.0481 4.3586 22.1188C4.34903 22.1896 4.35463 22.2615 4.37503 22.3299L5.91003 27.3949C5.97503 27.6099 6.18503 27.7549 6.40503 27.7499C7.22503 27.7299 7.52503 28.2949 7.65003 28.7449H4.82503L2.72503 21.1799C2.03503 15.1599 3.06503 12.5399 4.05503 11.3999C4.80503 10.5349 5.54503 10.5049 5.56003 10.5049H5.60003C5.98003 10.5049 6.34003 10.4049 6.67003 10.2599V17.0899C6.67003 17.3649 6.89503 17.5899 7.17003 17.5899C7.44503 17.5899 7.67003 17.3649 7.67003 17.0899V16.2099H8.65003V17.0899C8.65003 17.3649 8.87503 17.5899 9.15003 17.5899C9.42503 17.5899 9.65003 17.3649 9.65003 17.0899V16.2099H10.63V17.0899C10.63 17.3649 10.855 17.5899 11.13 17.5899C11.405 17.5899 11.63 17.3649 11.63 17.0899V16.2099H12.61V17.0899C12.61 17.3649 12.835 17.5899 13.11 17.5899C13.385 17.5899 13.61 17.3649 13.61 17.0899V16.2099H14.59V17.0899C14.59 17.3649 14.815 17.5899 15.09 17.5899C15.365 17.5899 15.59 17.3649 15.59 17.0899V16.2099H16.57V17.0899C16.57 17.3649 16.795 17.5899 17.07 17.5899C17.345 17.5899 17.57 17.3649 17.57 17.0899V11.0949C18.48 11.9599 19.35 12.0399 19.405 12.0399C20.015 12.0749 20.56 11.9899 21.03 11.7899L23.71 15.4899C23.415 15.7499 23.05 15.9949 22.6 16.1999L22.605 16.2099ZM25.985 18.5799C25.43 18.5799 24.975 18.1249 24.975 17.5699V15.6899C24.975 15.6899 24.97 15.6549 24.965 15.6349C26.035 14.2999 26 12.8599 26 12.7899V8.86994C25.925 8.11994 26.44 7.85494 26.505 7.81994C26.69 7.73494 26.845 7.66994 26.995 7.61994V17.5649C26.995 18.1199 26.54 18.5749 25.985 18.5749V18.5799ZM28.755 6.72994C28.525 6.57494 28.255 6.48494 27.955 6.46494C27.935 5.61494 28.2 5.02994 28.37 4.74994C28.68 4.77994 28.94 4.86494 29.13 5.01494C29.45 5.26494 29.5 5.61994 29.505 5.61994C29.505 5.99994 29.395 6.33994 29.185 6.62994C29.085 6.76994 28.89 6.81494 28.76 6.72994H28.755Z" fill="#6B7280"/>
</svg>
