<svg width="32" height="32" viewBox="0 0 32 32" fill="none" xmlns="http://www.w3.org/2000/svg">
<path d="M13.5 19H7.17214L6.49464 14.4268L5.50539 14.5733L6.1612 19H4.50001C4.43244 19 4.36557 19.0137 4.30344 19.0403C4.24131 19.0668 4.1852 19.1057 4.13852 19.1546C4.09183 19.2034 4.05554 19.2612 4.03182 19.3245C4.0081 19.3878 3.99745 19.4552 4.00052 19.5227L4.50052 30.5227C4.50635 30.6512 4.56153 30.7726 4.65457 30.8615C4.7476 30.9504 4.87133 31 5.00001 31H13C13.1287 31 13.2524 30.9504 13.3455 30.8615C13.4385 30.7726 13.4937 30.6512 13.4995 30.5227L13.9995 19.5227C14.0026 19.4552 13.9919 19.3878 13.9682 19.3245C13.9445 19.2612 13.9082 19.2034 13.8615 19.1546C13.8148 19.1057 13.7587 19.0668 13.6966 19.0403C13.6345 19.0137 13.5676 19 13.5 19ZM6.30933 20L6.60983 22.0282C6.08381 22.088 5.57978 22.273 5.13995 22.5676L5.02326 20H6.30933ZM12.5222 30H5.47783L5.19251 23.7233C5.28722 23.6646 5.38098 23.6044 5.47376 23.5428C5.84789 23.2967 6.18001 23.0796 6.75639 23.0178L7.50533 28.073L8.49458 27.9265L7.77583 23.0759C8.15976 23.1719 8.42895 23.3481 8.72445 23.5425C9.22833 23.8738 9.79945 24.2498 10.8995 24.2498C11.3356 24.257 11.7692 24.1833 12.1785 24.0324L11.8217 23.0983C11.5264 23.206 11.2136 23.2574 10.8994 23.25C10.0994 23.25 9.71689 22.9985 9.27439 22.7073C8.85708 22.4328 8.39277 22.1286 7.62145 22.0319L7.32033 20H12.9766L12.5222 30Z" fill="#6B7280"/>
<path d="M29.875 16.7887L29.1857 10.2382C29.1222 9.62345 28.8327 9.05412 28.3734 8.64059C27.914 8.22706 27.3175 7.99879 26.6994 8H24.0947L23.999 6.46875C23.9911 6.3418 23.935 6.22266 23.8423 6.13557C23.7496 6.04849 23.6272 6.00001 23.5 6H23C22.9994 5.46975 22.7885 4.96139 22.4136 4.58644C22.0386 4.2115 21.5303 4.0006 21 4H19.5V3.5C19.5 3.10218 19.342 2.72064 19.0607 2.43934C18.7794 2.15804 18.3978 2 18 2C17.6022 2 17.2206 2.15804 16.9393 2.43934C16.658 2.72064 16.5 3.10218 16.5 3.5V4H15C14.4697 4.0006 13.9614 4.2115 13.5864 4.58644C13.2115 4.96139 13.0006 5.46975 13 6C12.4697 6.0006 11.9614 6.2115 11.5864 6.58644C11.2115 6.96139 11.0006 7.46975 11 8C11 8.06566 11.0129 8.13068 11.0381 8.19135C11.0632 8.25201 11.1 8.30713 11.1464 8.35356L12.4799 9.68706L11.6927 17.9526L12.6882 18.0474L12.8148 16.7185C13.5898 16.6226 14.0562 16.3176 14.474 16.0427C14.8977 15.7639 15.2672 15.5222 16 15.502V24.5C16 25.0304 16.2107 25.5391 16.5858 25.9142C16.9609 26.2893 17.4696 26.5 18 26.5C18.5304 26.5 19.0391 26.2893 19.4142 25.9142C19.7893 25.5391 20 25.0304 20 24.5V16.7478C21.0331 16.7254 21.5858 16.3639 22.0739 16.043C22.2703 15.9051 22.4788 15.7852 22.6968 15.6847L22.303 14.7654C22.0303 14.8883 21.7696 15.0364 21.5242 15.2075C21.1006 15.486 20.7314 15.7276 19.9998 15.748V9C20.53 8.9994 21.0384 8.7885 21.4133 8.41356C21.7882 8.03861 21.9992 7.53025 21.9998 7H23.03L24.3679 28.4062C24.3807 28.6107 24.3515 28.8156 24.2821 29.0084C24.2127 29.2011 24.1045 29.3776 23.9643 29.5269C23.824 29.6762 23.6547 29.7952 23.4667 29.8766C23.2787 29.958 23.076 30 22.8711 30H14.5V31H22.8711C23.2126 31 23.5504 30.93 23.8637 30.7945C24.1771 30.6589 24.4594 30.4606 24.6931 30.2117C24.9269 29.9629 25.1072 29.6688 25.223 29.3476C25.3388 29.0264 25.3875 28.6848 25.3662 28.3441L24.3906 12.7338L24.8228 12.5485C24.9236 12.5053 25.0327 12.4847 25.1424 12.4882C25.2521 12.4918 25.3597 12.5194 25.4576 12.569C25.5554 12.6187 25.6412 12.6892 25.7088 12.7756C25.7765 12.862 25.8243 12.9623 25.849 13.0692L26.825 17.2992C26.914 17.6833 27.1462 18.019 27.4741 18.2379C27.802 18.4568 28.2011 18.5425 28.5899 18.4774C28.9788 18.4123 29.3282 18.2013 29.567 17.8876C29.8058 17.5738 29.9159 17.1808 29.875 16.7887ZM17.5 3.5C17.5 3.36739 17.5527 3.24021 17.6464 3.14645C17.7402 3.05268 17.8674 3 18 3C18.1326 3 18.2598 3.05268 18.3536 3.14645C18.4473 3.24021 18.5 3.36739 18.5 3.5V4H17.5V3.5ZM15 5H21C21.2651 5.00031 21.5193 5.10577 21.7068 5.29324C21.8942 5.48071 21.9997 5.73488 22 6H14C14.0003 5.73488 14.1058 5.48071 14.2932 5.29324C14.4807 5.10577 14.7349 5.00031 15 5ZM13.9244 15.2072C13.6126 15.4124 13.3307 15.5969 12.9129 15.6885L13.4978 9.54737C13.5047 9.47405 13.4954 9.40009 13.4705 9.33078C13.4456 9.26147 13.4056 9.19852 13.3536 9.14644L12.0179 7.81081C12.0622 7.58275 12.1844 7.37716 12.3635 7.22925C12.5427 7.08134 12.7677 7.00029 13 7H14C14.0006 7.53025 14.2115 8.03861 14.5864 8.41356C14.9614 8.7885 15.4697 8.9994 16 9V14.5021C14.9657 14.5243 14.4125 14.886 13.9244 15.2072ZM18 25.5C17.7349 25.4997 17.4807 25.3942 17.2932 25.2068C17.1058 25.0193 17.0003 24.7651 17 24.5V15.6452C17.2564 15.7487 17.4996 15.8821 17.7246 16.0427C18.0691 16.2694 18.4453 16.5165 19 16.6503V24.5C18.9997 24.7651 18.8942 25.0193 18.7068 25.2068C18.5193 25.3942 18.2651 25.4997 18 25.5ZM20 8H19.5C19.3674 8 19.2402 8.05268 19.1464 8.14645C19.0527 8.24021 19 8.36739 19 8.5V15.6053C18.7432 15.5018 18.4996 15.3682 18.2743 15.2073C17.9299 14.9808 17.5541 14.7339 17 14.6V8.5C17 8.36739 16.9473 8.24021 16.8536 8.14645C16.7598 8.05268 16.6326 8 16.5 8H16C15.7349 7.99969 15.4807 7.89423 15.2932 7.70676C15.1058 7.51929 15.0003 7.26512 15 7H21C20.9997 7.26512 20.8942 7.51929 20.7068 7.70676C20.5193 7.89423 20.2651 7.99969 20 8ZM26.8234 12.8444C26.7658 12.5949 26.6542 12.361 26.4963 12.1594C26.3385 11.9577 26.1384 11.7931 25.91 11.6773C25.6817 11.5614 25.4307 11.4971 25.1747 11.4888C24.9188 11.4805 24.6642 11.5285 24.4288 11.6294L24.3244 11.6742L24.1572 9H26.6994C27.0703 8.99926 27.4282 9.13622 27.7038 9.38434C27.9794 9.63245 28.1531 9.97405 28.1912 10.3429L28.7341 15.5H27.4362L26.8234 12.8444ZM28.7428 17.3183C28.6756 17.3929 28.5892 17.4477 28.493 17.4767C28.3968 17.5057 28.2945 17.5077 28.1972 17.4826C28.0999 17.4575 28.0114 17.4061 27.9413 17.3342C27.8712 17.2622 27.8221 17.1724 27.7995 17.0745L27.6669 16.5H28.8393L28.8808 16.8934C28.8892 16.9699 28.8813 17.0474 28.8575 17.1207C28.8337 17.1939 28.7946 17.2613 28.7428 17.3183Z" fill="#6B7280"/>
</svg>
