<svg width="32" height="32" viewBox="0 0 32 32" fill="none" xmlns="http://www.w3.org/2000/svg">
<path d="M12 11.25H11C11 11.3382 10.8102 11.5 10.5 11.5C10.1898 11.5 10 11.3382 10 11.25H9C9 11.951 9.65887 12.5 10.5 12.5C11.3411 12.5 12 11.951 12 11.25ZM19.834 12.4718L20.2381 12.7662C20.4506 12.9218 20.7072 13.0056 20.9705 13.0054C21.0366 13.0054 21.1026 13.0002 21.1679 12.99C21.3302 12.9651 21.4859 12.9083 21.6261 12.8228C21.7662 12.7374 21.8881 12.6249 21.9845 12.4921L23.4568 10.4716C23.6516 10.2035 23.7322 9.8691 23.6808 9.54169C23.6294 9.21428 23.4503 8.92063 23.1826 8.72516L22.7786 8.43078C22.5104 8.23612 22.1761 8.15567 21.8487 8.20705C21.5214 8.25843 21.2277 8.43745 21.0321 8.70491L19.5599 10.7254C19.365 10.9935 19.2844 11.3279 19.3358 11.6553C19.3872 11.9827 19.5664 12.2763 19.834 12.4718ZM20.3681 11.3143L21.8404 9.29378C21.8598 9.26736 21.8842 9.24503 21.9122 9.22806C21.9402 9.2111 21.9714 9.19983 22.0037 9.19491C22.017 9.19283 22.0304 9.19179 22.0438 9.19178C22.0962 9.19148 22.1474 9.20802 22.1897 9.23897L22.5938 9.53341C22.6466 9.57299 22.6819 9.63165 22.6922 9.69689C22.7024 9.76213 22.6868 9.82878 22.6486 9.88266L21.1763 11.9032C21.1368 11.9563 21.0782 11.9918 21.0128 12.002C20.9475 12.0123 20.8808 11.9964 20.827 11.958L20.4229 11.6635C20.37 11.6239 20.3347 11.5652 20.3245 11.5C20.3143 11.4347 20.3299 11.3681 20.3681 11.3142V11.3143ZM23.5883 14.0869C23.7439 14.594 24.0945 15.0186 24.563 15.2672C25.0316 15.5158 25.5797 15.5681 26.0868 15.4125C26.2003 15.3778 26.3105 15.3331 26.4161 15.2789C26.6118 15.4044 26.8339 15.4827 27.065 15.5077C27.2961 15.5327 27.5298 15.5036 27.7477 15.4228C27.9656 15.342 28.1618 15.2117 28.3208 15.0421C28.4797 14.8725 28.5971 14.6683 28.6636 14.4456C28.7302 14.2229 28.7441 13.9878 28.7042 13.7588C28.6643 13.5298 28.5718 13.3132 28.4339 13.1261C28.296 12.939 28.1165 12.7865 27.9096 12.6806C27.7027 12.5747 27.474 12.5184 27.2416 12.516C26.999 12.0868 26.6064 11.7624 26.1393 11.605C25.6721 11.4476 25.1633 11.4682 24.7104 11.6629C24.2576 11.8577 23.8926 12.2128 23.6855 12.6601C23.4784 13.1075 23.4438 13.6156 23.5883 14.0869ZM24.6171 13.0317C24.7098 12.857 24.8522 12.7137 25.0263 12.62C25.2005 12.5262 25.3985 12.4862 25.5954 12.505C25.7923 12.5238 25.9791 12.6005 26.1324 12.7255C26.2857 12.8505 26.3984 13.0181 26.4564 13.2072C26.4757 13.27 26.5071 13.3284 26.5489 13.379C26.5907 13.4296 26.6421 13.4716 26.7001 13.5023C26.7581 13.5331 26.8216 13.5522 26.887 13.5584C26.9524 13.5646 27.0183 13.5579 27.0811 13.5387C27.1677 13.5122 27.2597 13.5097 27.3476 13.5314C27.4354 13.5531 27.5157 13.5983 27.5799 13.6621C27.6441 13.7259 27.6898 13.8059 27.7121 13.8936C27.7344 13.9813 27.7324 14.0734 27.7065 14.1601C27.6806 14.2467 27.6316 14.3248 27.5648 14.3858C27.498 14.4469 27.4159 14.4886 27.3272 14.5067C27.2386 14.5248 27.1467 14.5184 27.0613 14.4883C26.976 14.4583 26.9004 14.4056 26.8426 14.336C26.7579 14.234 26.6362 14.1698 26.5042 14.1576C26.3722 14.1453 26.2408 14.186 26.1388 14.2707C25.9605 14.4184 25.7364 14.4997 25.5049 14.5007C25.2734 14.5017 25.0486 14.4223 24.8691 14.2761C24.6895 14.1299 24.5663 13.926 24.5203 13.699C24.4743 13.4721 24.5085 13.2363 24.6171 13.0317Z" fill="#6B7280"/>
<path d="M30 28.2929V27.7767C30.0009 27.4647 29.9398 27.1556 29.8204 26.8673C29.701 26.5791 29.5256 26.3173 29.3044 26.0973L28.3536 25.1464C28.3071 25.1 28.252 25.0632 28.1913 25.038C28.1307 25.0129 28.0657 25 28 25C27.9343 25 27.8693 25.0129 27.8087 25.038C27.748 25.0632 27.6929 25.1 27.6464 25.1464L26.6956 26.0973C26.4744 26.3173 26.299 26.5791 26.1796 26.8673C26.0602 27.1556 25.9991 27.4647 26 27.7767V28H25.5V27.7766C25.5009 27.4646 25.4398 27.1555 25.3204 26.8673C25.201 26.579 25.0256 26.3173 24.8044 26.0972L24.0339 25.3269L26.6702 24.3729L26.3299 23.4326L20.2169 25.6447C20.124 25.6783 20.0288 25.7051 19.9319 25.7249L19.3536 25.1465C19.3071 25.1001 19.252 25.0632 19.1913 25.0381C19.1307 25.013 19.0657 25 19 25C18.9343 25 18.8693 25.013 18.8087 25.0381C18.748 25.0632 18.6929 25.1001 18.6464 25.1465L18.3898 25.4031C18.0518 25.1673 17.7953 24.8324 17.6558 24.4446L16.9752 22.5639L29.1994 18.1403L29.88 20.0209C29.9694 20.2679 30.0092 20.5301 29.9973 20.7925C29.9854 21.0548 29.9218 21.3123 29.8104 21.5501C29.699 21.788 29.5418 22.0015 29.3478 22.1786C29.1538 22.3557 28.9269 22.4928 28.6799 22.5822L27.3299 23.0707L27.6701 24.011L29.0201 23.5225C29.3906 23.3884 29.731 23.1827 30.022 22.9171C30.3129 22.6515 30.5487 22.3311 30.7159 21.9744C30.883 21.6176 30.9783 21.2315 30.9962 20.8379C31.0141 20.4443 30.9543 20.0511 30.8202 19.6806L29.9696 17.3299C29.9472 17.2681 29.9129 17.2114 29.8687 17.1629C29.8244 17.1144 29.771 17.0751 29.7115 17.0473C29.6521 17.0194 29.5877 17.0035 29.5221 17.0005C29.4565 16.9976 29.391 17.0075 29.3293 17.0299L24.9594 18.6112C25.0339 18.2621 25.0136 17.8995 24.9007 17.5608C24.7878 17.2222 24.5864 16.9199 24.3173 16.6853C24.0482 16.4508 23.7213 16.2925 23.3704 16.2269C23.0195 16.1613 22.6575 16.1907 22.3218 16.3122C21.9861 16.4337 21.6891 16.6427 21.4614 16.9177C21.2338 17.1927 21.0839 17.5235 21.0272 17.876C20.9705 18.2284 21.0092 18.5896 21.1391 18.9221C21.2691 19.2545 21.4856 19.5462 21.7663 19.7668L19.9855 20.4111C19.9473 20.1197 19.8367 19.8425 19.6636 19.605C19.4905 19.3674 19.2606 19.1771 18.9949 19.0514L18.3275 18.7047L18.9772 18.5053C19.2938 18.4076 19.5588 18.1884 19.7141 17.8957C19.8694 17.6031 19.9024 17.2608 19.8058 16.9438L19.366 15.5097C19.2684 15.193 19.0492 14.9279 18.7564 14.7726C18.4637 14.6173 18.1213 14.5845 17.8044 14.6812L16.3703 15.1211C16.0537 15.2188 15.7887 15.438 15.6334 15.7307C15.4781 16.0234 15.4452 16.3657 15.5418 16.6827L15.7514 17.3662L14.3999 16.664L13.1398 13.7238L13.6979 13.4411C14.0904 13.2438 14.4202 12.941 14.6502 12.5668C14.8802 12.1925 15.0013 11.7615 15 11.3223V10.5H15.375C15.6733 10.4997 15.9592 10.381 16.1701 10.1701C16.381 9.95922 16.4997 9.67327 16.5 9.375V8.125C16.4999 7.94006 16.4543 7.75798 16.3671 7.59489C16.2799 7.4318 16.1538 7.29273 16 7.19V5.25C15.9987 4.12322 15.5506 3.04296 14.7538 2.2462C13.957 1.44945 12.8768 1.00127 11.75 1H7.25C6.78603 1.00051 6.34121 1.18505 6.01313 1.51313C5.68505 1.84121 5.50051 2.28603 5.5 2.75V4.25C5.49987 4.48295 5.54638 4.71356 5.63679 4.92824C5.72721 5.14293 5.85969 5.33734 6.02644 5.5H6V7H5.625C5.32673 7.00033 5.04078 7.11896 4.82987 7.32987C4.61896 7.54078 4.50033 7.82673 4.5 8.125V9.375C4.50033 9.67327 4.61896 9.95922 4.82987 10.1701C5.04078 10.381 5.32673 10.4997 5.625 10.5H6V11.3412C5.99851 11.7826 6.12072 12.2155 6.35277 12.591C6.58482 12.9665 6.91742 13.2694 7.31287 13.4654L7.85475 13.7364L6.60006 16.6639L4.81525 17.5912L5.27631 18.4786L6.91838 17.6255L8.37869 19.0858C8.9413 19.6484 9.70435 19.9644 10.5 19.9644C11.2956 19.9644 12.0587 19.6484 12.6213 19.0858L14.0816 17.6254L18.5433 19.9437C18.5502 19.9473 18.5572 19.9507 18.5643 19.9539C18.6942 20.0142 18.8043 20.1103 18.8814 20.231C18.9586 20.3516 18.9997 20.4918 19 20.635V20.7678L16.1647 21.7938C16.103 21.8161 16.0463 21.8504 15.9978 21.8947C15.9493 21.9389 15.91 21.9923 15.8821 22.0518C15.8543 22.1112 15.8384 22.1756 15.8354 22.2412C15.8324 22.3068 15.8424 22.3723 15.8647 22.4341L16.0401 22.9186L12.9909 24.131C12.2063 23.9763 11.3934 24.0617 10.6581 24.376C10.648 24.3803 10.638 24.385 10.6283 24.3899L8.42319 25.5059C8.3956 25.5102 8.36842 25.5168 8.34194 25.5257L6 26.3062V23H5V27C4.99999 27.0792 5.01882 27.1573 5.05492 27.2279C5.09102 27.2984 5.14336 27.3593 5.20763 27.4057C5.27191 27.452 5.34627 27.4824 5.4246 27.4943C5.50292 27.5063 5.58296 27.4994 5.65812 27.4744L8.23644 26.6149L9.25331 28.7797L6.39769 30H2.75C2.55116 29.9998 2.36053 29.9207 2.21993 29.7801C2.07932 29.6395 2.00023 29.4488 2 29.25V20.635C2.00027 20.4918 2.04141 20.3516 2.11859 20.231C2.19576 20.1104 2.30578 20.0143 2.43569 19.954C2.44275 19.9507 2.44975 19.9473 2.45669 19.9437L4.2105 19.0324L3.74944 18.1451L2.00513 19.0514C1.70497 19.1933 1.45121 19.4174 1.27329 19.6977C1.09538 19.978 1.00062 20.303 1 20.635V29.25C1.00051 29.714 1.18505 30.1588 1.51313 30.4869C1.84121 30.8149 2.28603 30.9995 2.75 31H15V30H8.9425L10.1219 29.4961L10.1221 29.4959L15.6419 27.1439C15.7639 27.092 15.8602 26.9937 15.9097 26.8706C15.9592 26.7476 15.9578 26.61 15.9059 26.488C15.8799 26.4269 15.8525 26.3668 15.8238 26.3078L17.2318 25.6861C17.3643 25.845 17.5129 25.9897 17.6754 26.1178C17.2409 26.5605 16.9983 27.1564 17 27.7766V28.2929L16.1464 29.1464C16.1 29.1929 16.0632 29.248 16.038 29.3087C16.0129 29.3693 16 29.4343 16 29.5V30.5C16 30.6326 16.0527 30.7598 16.1464 30.8536C16.2402 30.9473 16.3674 31 16.5 31H30.5C30.6326 31 30.7598 30.9473 30.8536 30.8536C30.9473 30.7598 31 30.6326 31 30.5V29.5C31 29.4343 30.9871 29.3693 30.962 29.3087C30.9368 29.248 30.9 29.1929 30.8536 29.1464L30 28.2929ZM22.7091 17.2391C22.8981 17.1811 23.1002 17.1805 23.2896 17.2373C23.4791 17.2941 23.6474 17.4058 23.7733 17.5583C23.8993 17.7108 23.9772 17.8973 23.9972 18.094C24.0172 18.2908 23.9783 18.4891 23.8857 18.6638C23.793 18.8385 23.6505 18.9818 23.4764 19.0756C23.3023 19.1693 23.1042 19.2094 22.9074 19.1906C22.7105 19.1718 22.5236 19.0951 22.3703 18.9701C22.217 18.8451 22.1043 18.6775 22.0462 18.4884C21.9693 18.2348 21.9959 17.9611 22.12 17.727C22.2442 17.493 22.456 17.3175 22.7091 17.2391ZM16.5168 16.1993C16.532 16.1703 16.5528 16.1445 16.578 16.1236C16.6032 16.1026 16.6323 16.0868 16.6636 16.0771L18.0976 15.6372C18.1206 15.6301 18.1444 15.6266 18.1684 15.6266C18.2222 15.6267 18.2745 15.6438 18.3179 15.6755C18.3613 15.7072 18.3935 15.7518 18.4099 15.8029L18.8498 17.237C18.8686 17.3004 18.8618 17.3686 18.8308 17.4271C18.7998 17.4855 18.7471 17.5294 18.6841 17.5493L17.25 17.9891C17.1866 18.0077 17.1185 18.0007 17.0602 17.9698C17.0018 17.9388 16.9579 17.8863 16.9377 17.8234L16.4979 16.3894C16.4884 16.358 16.4851 16.3251 16.4884 16.2925C16.4916 16.2598 16.5013 16.2282 16.5168 16.1993ZM15.5 9.375C15.5 9.40814 15.4868 9.43992 15.4634 9.46335C15.4399 9.48679 15.4081 9.49997 15.375 9.5H15V8.5H15.5V9.375ZM15 5.25V7.5H12.25C11.3883 7.49902 10.5623 7.1563 9.95298 6.54702C9.3437 5.93774 9.00098 5.11165 9 4.25V2H11.75C12.6117 2.00098 13.4377 2.3437 14.047 2.95298C14.6563 3.56226 14.999 4.38835 15 5.25ZM6.5 2.75C6.50023 2.55116 6.57932 2.36053 6.71993 2.21993C6.86053 2.07932 7.05116 2.00023 7.25 2H8V5H7.25C7.05116 4.99977 6.86053 4.92068 6.71993 4.78007C6.57932 4.63947 6.50023 4.44884 6.5 4.25V2.75ZM5.625 9.5C5.59186 9.49997 5.56008 9.48679 5.53665 9.46335C5.51321 9.43992 5.50003 9.40814 5.5 9.375V8.125C5.50003 8.09186 5.51321 8.06008 5.53665 8.03665C5.56008 8.01321 5.59186 8.00003 5.625 8H6V9.5H5.625ZM7 11.3412V5.98219C7.0828 5.99407 7.16635 6.00002 7.25 6H8.37719C8.71446 6.74463 9.25904 7.37637 9.94583 7.81971C10.6326 8.26305 11.4326 8.49922 12.25 8.5H14V11.3223C14.0007 11.5766 13.9306 11.8261 13.7974 12.0428C13.6643 12.2594 13.4734 12.4347 13.2461 12.5489L10.8352 13.7697C10.7307 13.8224 10.6154 13.8499 10.4983 13.8502C10.3813 13.8506 10.2658 13.8236 10.161 13.7715L7.76006 12.5711C7.53112 12.4575 7.33857 12.2821 7.20423 12.0648C7.06989 11.8474 6.99914 11.5967 7 11.3412ZM11.9142 18.3787C11.5391 18.7537 11.0304 18.9644 10.5 18.9644C9.96958 18.9644 9.46088 18.7537 9.08581 18.3787L7.59294 16.8858L8.75069 14.1844L9.71381 14.6659C9.95832 14.7875 10.2278 14.8505 10.5009 14.8498C10.774 14.8491 11.0431 14.7848 11.287 14.6619L12.2459 14.1763L13.4071 16.8858L11.9142 18.3787ZM27 27.7766C26.9995 27.596 27.0348 27.4171 27.104 27.2502C27.1731 27.0833 27.2746 26.9318 27.4027 26.8044L28 26.2071L28.5973 26.8044C28.7254 26.9318 28.8269 27.0833 28.896 27.2502C28.9652 27.4171 29.0005 27.596 29 27.7766V28H27V27.7766ZM24.5 27.7766V28H22.5V27.7766C22.4995 27.596 22.5348 27.4171 22.604 27.2502C22.6731 27.0833 22.7746 26.9318 22.9027 26.8044L23.5 26.2071L24.0973 26.8044C24.2254 26.9318 24.3269 27.0833 24.396 27.2502C24.4652 27.4171 24.5005 27.596 24.5 27.7766ZM22.1956 26.0972C21.9744 26.3173 21.799 26.579 21.6796 26.8673C21.5602 27.1555 21.4991 27.4646 21.5 27.7766V28H21V27.7766C21.0011 27.3436 20.883 26.9187 20.6588 26.5483L22.3604 25.9324L22.1956 26.0972ZM19 26.2071L19.5973 26.8044C19.7254 26.9318 19.8269 27.0833 19.896 27.2502C19.9652 27.4171 20.0005 27.596 20 27.7766V28H18V27.7766C17.9995 27.596 18.0348 27.4171 18.104 27.2502C18.1731 27.0833 18.2746 26.9318 18.4027 26.8044L19 26.2071ZM10.1803 28.3841L9.20681 26.2301L11.0646 25.2899C11.6961 25.024 12.3998 24.9833 13.0577 25.1749L13.0597 25.1798L13.066 25.1773C13.7614 25.3799 14.3601 25.827 14.7516 26.4363L10.1803 28.3841ZM15.2692 25.4595C15.0047 25.15 14.6943 24.8828 14.3488 24.6672L16.3806 23.8595L16.7267 24.8161L15.2692 25.4595ZM30 30H17V29.7071L17.7071 29H29.2929L30 29.7071V30Z" fill="#6B7280"/>
<path d="M8 8H9V9H8V8ZM25.8973 8.81519L26.8534 8.522L27.1466 9.47806L26.1905 9.77125L25.8973 8.81519ZM16.8534 12.1594L17.8094 11.8663L18.1026 12.8223L17.1466 13.1155L16.8534 12.1594ZM29.3534 15.3152L30.3094 15.022L30.6026 15.9781L29.6466 16.2712L29.3534 15.3152Z" fill="#6B7280"/>
</svg>
