<svg width="30" height="30" viewBox="0 0 30 30" fill="none" xmlns="http://www.w3.org/2000/svg">
<path d="M15 23H24" stroke="black" stroke-width="1.5" stroke-linecap="round" stroke-linejoin="round"/>
<path d="M19.5 6.50023C19.8978 6.1024 20.4374 5.87891 21 5.87891C21.2786 5.87891 21.5544 5.93378 21.8118 6.04038C22.0692 6.14699 22.303 6.30324 22.5 6.50023C22.697 6.69721 22.8532 6.93106 22.9598 7.18843C23.0665 7.4458 23.1213 7.72165 23.1213 8.00023C23.1213 8.2788 23.0665 8.55465 22.9598 8.81202C22.8532 9.06939 22.697 9.30324 22.5 9.50023L10 22.0002L6 23.0002L7 19.0002L19.5 6.50023Z" stroke="black" stroke-width="1.5" stroke-linecap="round" stroke-linejoin="round"/>
<path d="M18 8L21 11" stroke="black" stroke-width="1.5" stroke-linecap="round" stroke-linejoin="round"/>
</svg>
