<svg width="30" height="28" viewBox="0 0 30 28" fill="none" xmlns="http://www.w3.org/2000/svg">
<path d="M15.5353 21.1254H14.1946C13.7194 21.1254 13.3329 20.7389 13.3329 20.2638C13.3329 19.7404 12.9941 19.4135 12.6771 19.2821C12.3601 19.1508 11.8893 19.1423 11.5193 19.5125C11.3565 19.6752 11.1401 19.7648 10.9099 19.7648C10.6797 19.7648 10.4633 19.6751 10.3006 19.5124L9.35254 18.5644C9.0166 18.2284 9.0166 17.6817 9.35254 17.3457C9.72205 16.9763 9.71321 16.5056 9.58183 16.1883C9.45033 15.8711 9.12378 15.532 8.60128 15.532C8.12614 15.532 7.73965 15.1455 7.73965 14.6704V13.3297C7.73965 12.8545 8.1262 12.468 8.60128 12.468C9.12378 12.468 9.45033 12.129 9.58183 11.8117C9.71327 11.4945 9.72205 11.0238 9.35254 10.6544C9.1898 10.4916 9.10019 10.2752 9.10019 10.045C9.10019 9.81483 9.18986 9.59842 9.3526 9.43575L10.3006 8.48764C10.4633 8.32497 10.6797 8.23529 10.9099 8.23529C11.1401 8.23529 11.3565 8.3249 11.5193 8.48764C11.8887 8.85716 12.3594 8.84819 12.6766 8.71693C12.9939 8.58549 13.3329 8.25894 13.3329 7.73644C13.3329 7.26125 13.7195 6.87476 14.1946 6.87476H15.5353C16.0104 6.87476 16.3969 7.26131 16.3969 7.73644C16.3969 8.25894 16.736 8.58543 17.0532 8.71693C17.3705 8.84831 17.8413 8.8571 18.2106 8.48764C18.5467 8.15176 19.0932 8.1517 19.4293 8.48764L20.3774 9.43575C20.54 9.59842 20.6297 9.81483 20.6297 10.045C20.6297 10.2752 20.5401 10.4916 20.3774 10.6544C20.0078 11.0238 20.0167 11.4945 20.1481 11.8117C20.2795 12.129 20.6061 12.468 21.1286 12.468C21.6037 12.468 21.9902 12.8546 21.9902 13.3297V14.6704C21.9902 15.1455 21.6036 15.532 21.1286 15.532C20.6061 15.532 20.2796 15.8711 20.1481 16.1883C20.0166 16.5056 20.0078 16.9763 20.3774 17.3457C20.7133 17.6817 20.7133 18.2284 20.3774 18.5644L19.4293 19.5125C19.0931 19.8485 18.5466 19.8483 18.2106 19.5125C17.8412 19.1429 17.3706 19.1519 17.0532 19.2832C16.736 19.4147 16.3969 19.7412 16.3969 20.2637C16.397 20.7389 16.0104 21.1254 15.5353 21.1254ZM12.2584 18.3539C12.5055 18.3539 12.7564 18.403 12.9995 18.5038C13.7249 18.8042 14.1755 19.4786 14.1755 20.2637C14.1755 20.2742 14.1841 20.2828 14.1946 20.2828H15.5353C15.5458 20.2828 15.5544 20.2742 15.5544 20.2637C15.5544 19.4794 16.0051 18.8054 16.7308 18.5048C17.4565 18.204 18.2518 18.362 18.8065 18.9166C18.8138 18.9241 18.826 18.9242 18.8335 18.9166L19.7816 17.9685C19.789 17.9611 19.789 17.9489 19.7816 17.9415C19.2269 17.3868 19.0691 16.5915 19.3697 15.8658C19.6703 15.1402 20.3442 14.6894 21.1286 14.6894C21.1391 14.6894 21.1477 14.6808 21.1477 14.6703V13.3296C21.1477 13.3191 21.1391 13.3105 21.1286 13.3105C20.3443 13.3105 19.6703 12.8597 19.3697 12.1341C19.0691 11.4084 19.2269 10.6131 19.7816 10.0585C19.7832 10.0568 19.7872 10.0529 19.7872 10.0449C19.7872 10.037 19.7834 10.0332 19.7816 10.0314L18.8335 9.08332C18.826 9.07574 18.8138 9.07586 18.8065 9.08332C18.2517 9.63796 17.4564 9.79576 16.7308 9.49515C16.0051 9.1946 15.5544 8.52068 15.5544 7.73626C15.5544 7.72567 15.5458 7.71712 15.5353 7.71712H14.1946C14.184 7.71712 14.1755 7.72573 14.1755 7.73626C14.1755 8.52062 13.7247 9.19454 12.999 9.49515C12.2733 9.79582 11.478 9.63784 10.9234 9.08332C10.9218 9.08163 10.9178 9.07766 10.9099 9.07766C10.902 9.07766 10.8981 9.08151 10.8964 9.08326L9.94828 10.0314C9.94653 10.0331 9.94262 10.037 9.94262 10.0449C9.94262 10.0529 9.94653 10.0568 9.94828 10.0585C10.5029 10.6131 10.6607 11.4085 10.3601 12.1341C10.0596 12.8597 9.38558 13.3105 8.60116 13.3105C8.59063 13.3105 8.58208 13.3191 8.58208 13.3296V14.6703C8.58208 14.6809 8.59069 14.6894 8.60116 14.6894C9.38552 14.6894 10.0595 15.1402 10.3601 15.8658C10.6607 16.5916 10.5029 17.3869 9.94828 17.9415C9.94082 17.9489 9.94082 17.9611 9.94828 17.9685L10.8964 18.9166C10.8981 18.9183 10.902 18.9223 10.9099 18.9223C10.9178 18.9223 10.9217 18.9183 10.9234 18.9166C11.2926 18.5476 11.768 18.3539 12.2584 18.3539ZM14.865 17.6975C12.8262 17.6975 11.1675 16.0388 11.1675 14C11.1675 11.9613 12.8262 10.3026 14.865 10.3026C16.9038 10.3026 18.5624 11.9612 18.5624 14C18.5624 16.0388 16.9038 17.6975 14.865 17.6975ZM14.865 11.1451C13.2908 11.1451 12.0101 12.4258 12.0101 14C12.0101 15.5743 13.2907 16.8549 14.865 16.8549C16.4392 16.8549 17.7199 15.5742 17.7199 14C17.7199 12.4258 16.4392 11.1451 14.865 11.1451Z" fill="#6B7280"/>
<path d="M26.6451 28C26.5947 28 26.5437 27.991 26.4947 27.9722C26.3316 27.9098 26.224 27.7533 26.224 27.5787V26.285H14.865C8.09096 26.285 2.5799 20.774 2.5799 14C2.5799 11.0953 3.61317 8.27639 5.48941 6.06241C5.56945 5.96798 5.68693 5.91346 5.81078 5.91346H9.51C9.69391 5.91346 9.85653 6.03268 9.91177 6.20811C9.96708 6.38348 9.9022 6.57444 9.75157 6.67987C7.3624 8.35216 5.93602 11.0887 5.93602 14C5.93602 18.9235 9.94162 22.9291 14.8651 22.9291H26.224V21.6354C26.224 21.4608 26.3317 21.3043 26.4948 21.2419C26.658 21.1795 26.8425 21.2243 26.959 21.3542L29.6225 24.3259C29.7659 24.4859 29.7659 24.7282 29.6225 24.8882L26.959 27.8599C26.8775 27.9508 26.7626 28 26.6451 28ZM6.00812 6.75606C4.33933 8.79473 3.42245 11.3593 3.42245 14C3.42245 20.3094 8.55557 25.4425 14.865 25.4425H26.6452C26.8779 25.4425 27.0665 25.6311 27.0665 25.8638V26.4775L28.7429 24.607L27.0665 22.7366V23.3503C27.0665 23.583 26.8779 23.7716 26.6452 23.7716H14.865C9.47696 23.7716 5.09341 19.3881 5.09341 14C5.09341 11.226 6.27647 8.59734 8.30798 6.75606H6.00812ZM3.08483 28C2.96736 28 2.85253 27.9508 2.77098 27.8599L0.107561 24.8882C-0.0358535 24.7282 -0.0358535 24.4859 0.107561 24.3259L2.77098 21.3542C2.88749 21.2243 3.07201 21.1795 3.23523 21.2419C3.39832 21.3043 3.50599 21.4608 3.50599 21.6354V22.9291H5.06019C5.17532 22.9291 5.28545 22.9762 5.36495 23.0595C6.28929 24.0283 7.3515 24.8478 8.52205 25.4951C8.69014 25.5881 8.77409 25.783 8.72606 25.969C8.6781 26.1551 8.51031 26.285 8.31821 26.285H3.50599V27.5787C3.50599 27.7533 3.39832 27.9098 3.23523 27.9722C3.18618 27.991 3.13526 28 3.08483 28ZM0.986942 24.607L2.66338 26.4775V25.8638C2.66338 25.6311 2.85199 25.4425 3.08465 25.4425H6.84965C6.14467 24.9482 5.48622 24.3893 4.88145 23.7716H3.08471C2.85205 23.7716 2.66344 23.583 2.66344 23.3503V22.7366L0.986942 24.607ZM23.9192 22.0865H20.22C20.0361 22.0865 19.8735 21.9673 19.8182 21.7919C19.7629 21.6165 19.8278 21.4255 19.9784 21.3201C22.3675 19.6478 23.7939 16.9113 23.7939 13.9999C23.7939 9.07645 19.7884 5.07097 14.8649 5.07097H3.50599V6.36458C3.50599 6.53917 3.39832 6.69564 3.23523 6.75805C3.07201 6.82046 2.88749 6.77568 2.77098 6.64575L0.107561 3.67414C-0.0358535 3.51411 -0.0358535 3.27182 0.107561 3.1118L2.77098 0.140123C2.88749 0.0101897 3.07201 -0.0345859 3.23523 0.027823C3.39832 0.0902318 3.50599 0.246705 3.50599 0.421294V1.71497H14.865C21.639 1.71497 27.15 7.22603 27.15 14C27.15 16.9047 26.1168 19.7236 24.2406 21.9376C24.1606 22.032 24.0431 22.0865 23.9192 22.0865ZM21.422 21.244H23.7219C25.3907 19.2053 26.3075 16.6407 26.3075 14C26.3075 7.69057 21.1744 2.55752 14.865 2.55752H3.08471C2.85205 2.55752 2.66344 2.36891 2.66344 2.13624V1.52251L0.987002 3.39297L2.66344 5.26343V4.64975C2.66344 4.41709 2.85205 4.22848 3.08471 4.22848H14.865C20.253 4.22848 24.6365 8.61196 24.6365 14C24.6365 16.774 23.4535 19.4027 21.422 21.244ZM26.6451 6.78592C26.5947 6.78592 26.5437 6.77689 26.4947 6.75811C26.3316 6.6957 26.224 6.53923 26.224 6.36464V5.07103H24.6698C24.5546 5.07103 24.4445 5.0239 24.365 4.94049C23.4411 3.97198 22.379 3.15254 21.208 2.50486C21.0399 2.41188 20.9559 2.21701 21.0039 2.03099C21.0519 1.84496 21.2197 1.71497 21.4118 1.71497H26.224V0.421294C26.224 0.246705 26.3316 0.0902318 26.4947 0.027823C26.6579 -0.0345859 26.8424 0.0101897 26.959 0.140123L29.6224 3.1118C29.7659 3.27182 29.7659 3.51411 29.6224 3.67414L26.959 6.64581C26.8775 6.73675 26.7626 6.78592 26.6451 6.78592ZM24.8486 4.22848H26.6452C26.8779 4.22848 27.0665 4.41709 27.0665 4.64975V5.26343L28.7429 3.39297L27.0665 1.52251V2.13624C27.0665 2.36891 26.8779 2.55752 26.6452 2.55752H22.8803C23.5856 3.05204 24.244 3.61077 24.8486 4.22848Z" fill="#6B7280"/>
</svg>
