<svg width="32" height="32" viewBox="0 0 32 32" fill="none" xmlns="http://www.w3.org/2000/svg">
<g clip-path="url(#clip0_1_7487)">
<path d="M28.4013 10.7262C28.6471 10.1327 28.3653 9.45228 27.7718 9.20646C27.1783 8.96063 26.4979 9.24246 26.2521 9.83593C26.0063 10.4294 26.2881 11.1098 26.8816 11.3556C27.4751 11.6015 28.1555 11.3196 28.4013 10.7262Z" stroke="#6B7280" stroke-width="1.17188" stroke-miterlimit="10" stroke-linecap="round" stroke-linejoin="round"/>
<path d="M23.1225 16.1282V9.91503M12.6566 4.25647V10.2885M15.4596 10.2885V4.25647M18.2624 9.11934V9.79941C18.2624 9.86363 18.2497 9.92722 18.2252 9.98655C18.2006 10.0459 18.1646 10.0998 18.1191 10.1452C18.0737 10.1906 18.0198 10.2266 17.9605 10.2512C17.9011 10.2758 17.8375 10.2884 17.7733 10.2884H9.85352V4.74553C9.85352 4.61583 9.90504 4.49143 9.99676 4.39971C10.0885 4.308 10.2129 4.25647 10.3426 4.25647H17.7733C17.903 4.25647 18.0274 4.308 18.1191 4.39971C18.2109 4.49143 18.2624 4.61583 18.2624 4.74553V6.93184M9.8537 15.0969V5.58941M18.0687 23.3119V20.4219M28.1762 20.4225V23.9488C28.1762 24.7007 27.5668 25.31 26.815 25.31H20.0668M31.0421 13.2978H23.1223V7.75484C23.1223 7.62514 23.1739 7.50074 23.2656 7.40903C23.3573 7.31731 23.4817 7.26578 23.6114 7.26578H31.0421C31.1718 7.26578 31.2962 7.31731 31.388 7.40903C31.4797 7.50074 31.5312 7.62514 31.5312 7.75484V12.8088C31.5312 12.9385 31.4797 13.0629 31.388 13.1546C31.2962 13.2463 31.1718 13.2978 31.0421 13.2978Z" stroke="#6B7280" stroke-width="1.17188" stroke-miterlimit="10" stroke-linecap="round" stroke-linejoin="round"/>
<path d="M24.9412 20.0744C26.0993 20.1394 27.2575 20.2687 28.415 20.4606C28.8543 20.5337 29.2531 20.1931 29.2531 19.7481V18.9869C29.2531 18.1037 28.7025 17.3156 27.8743 17.0087C26.8962 16.6462 25.9187 16.3955 24.9412 16.2569M24.9412 16.2569C23.7348 16.0849 22.5101 16.0849 21.3037 16.2569M24.9412 16.2569V25.31M21.3037 16.2569C20.3256 16.3955 19.3475 16.6462 18.37 17.0087C17.5425 17.3156 16.9918 18.1037 16.9918 18.9869V19.7481C16.9918 20.1931 17.3906 20.5337 17.8293 20.4606C18.9875 20.2687 20.1456 20.1394 21.3037 20.0744M21.3037 16.2569V25.31M9.27935 14.5223C5.89579 17.9059 3.80304 22.5802 3.80304 27.7435M9.27935 14.5223L7.45272 12.6956C7.15141 12.3944 6.6611 12.4051 6.3706 12.7168C2.86647 16.4765 0.660973 21.4632 0.469223 26.9615C0.454348 27.388 0.792223 27.7435 1.21904 27.7435H3.80304M9.27935 14.5223L21.2337 26.4767C21.7012 26.9442 21.3701 27.7435 20.709 27.7435H8.83691M3.80304 27.7435H6.64941" stroke="#6B7280" stroke-width="1.17188" stroke-miterlimit="10" stroke-linecap="round" stroke-linejoin="round"/>
<path d="M10.2598 23.9607C10.6921 22.9171 10.1965 21.7206 9.1529 21.2883C8.10925 20.856 6.91278 21.3516 6.48049 22.3952C6.04819 23.4389 6.54379 24.6354 7.58743 25.0676C8.63107 25.4999 9.82755 25.0043 10.2598 23.9607Z" stroke="#6B7280" stroke-width="1.17188" stroke-miterlimit="10" stroke-linecap="round" stroke-linejoin="round"/>
<path d="M13.9015 25.2315C12.7719 25.2315 11.8561 26.1472 11.8561 27.2768C11.8561 27.4375 11.8752 27.5936 11.9102 27.7436H15.8927C15.9277 27.5936 15.9469 27.4375 15.9469 27.2768C15.9469 26.1472 15.0311 25.2315 13.9015 25.2315ZM11.1356 19.0868C11.1356 20.2165 12.0514 21.1322 13.181 21.1322C13.9156 21.1322 14.5596 20.7447 14.9202 20.1632L12.1047 17.3477C11.5232 17.7083 11.1356 18.3522 11.1356 19.0868Z" stroke="#6B7280" stroke-width="1.17188" stroke-miterlimit="10" stroke-linecap="round" stroke-linejoin="round"/>
</g>
<defs>
<clipPath id="clip0_1_7487">
<rect width="32" height="32" fill="white"/>
</clipPath>
</defs>
</svg>
