<svg width="32" height="32" viewBox="0 0 32 32" fill="none" xmlns="http://www.w3.org/2000/svg">
<path d="M11.4955 17.5545C11.4861 17.0533 11.2827 16.5752 10.928 16.221L9.5 14.793L8.07199 16.221C7.7215 16.5718 7.51892 17.0437 7.506 17.5395C7.00588 17.5517 6.52913 17.7537 6.1725 18.1045L4.745 19.5325L6.173 20.9605C6.52335 21.3101 6.99421 21.5124 7.489 21.526C7.49857 22.0273 7.70196 22.5054 8.0565 22.86L9.4845 24.2875L10.9125 22.8595C11.2621 22.5091 11.4645 22.0383 11.478 21.5435C11.9792 21.5341 12.4572 21.3306 12.8115 20.976L14.2395 19.548L12.812 18.1205C12.4614 17.7707 11.9905 17.5683 11.4955 17.5545ZM8.5 19.5C8.5 18.9485 8.9485 18.5 9.5 18.5C10.0515 18.5 10.5 18.9485 10.5 19.5C10.5 20.0515 10.0515 20.5 9.5 20.5C8.9485 20.5 8.5 20.0515 8.5 19.5ZM8.779 16.928L9.5 16.207L10.221 16.928C10.398 17.1055 10.5 17.351 10.5 17.602C10.5 17.6585 10.4935 17.7145 10.484 17.7695C10.1852 17.5951 9.84592 17.5022 9.5 17.5C9.15367 17.502 8.81398 17.5952 8.515 17.77C8.48858 17.6187 8.49877 17.4634 8.5447 17.3169C8.59063 17.1704 8.67097 17.037 8.779 16.928ZM6.1585 19.532L6.879 18.8115C7.1055 18.585 7.436 18.5005 7.744 18.562C7.58617 18.8496 7.50232 19.1719 7.5 19.5C7.5 19.864 7.605 20.201 7.776 20.4955C7.462 20.5665 7.114 20.487 6.8795 20.253L6.1585 19.532ZM10.205 22.153L9.484 22.8735L8.7635 22.153C8.65044 22.0404 8.56765 21.901 8.52281 21.7479C8.47797 21.5948 8.47253 21.4328 8.507 21.277C8.523 21.268 8.54049 21.262 8.55599 21.2525C8.84508 21.4125 9.1696 21.4975 9.5 21.5C9.8465 21.5 10.1675 21.4035 10.452 21.248C10.471 21.323 10.484 21.4 10.484 21.479C10.484 21.7335 10.385 21.9725 10.205 22.153ZM12.104 20.2695C11.8765 20.497 11.536 20.5815 11.224 20.5145L11.219 20.5045C11.4009 20.2008 11.4979 19.8539 11.5 19.5C11.5 19.164 11.4085 18.8515 11.2615 18.573C11.5615 18.5225 11.884 18.6075 12.1045 18.8275L12.8255 19.548L12.104 20.2695Z" fill="#6B7280"/>
<path d="M29 8C27.6215 8 26.5 9.1215 26.5 10.5V13H20C19.424 13.0009 18.8659 13.2003 18.4198 13.5646C17.9736 13.9289 17.6666 14.4358 17.5505 15H17.5V8.5C17.5 7.397 16.603 6.5 15.5 6.5C15.134 6.5 14.7955 6.606 14.5 6.778V4.5C14.5 3.397 13.603 2.5 12.5 2.5C12.134 2.5 11.7955 2.606 11.5 2.778V2.5C11.5 1.397 10.603 0.5 9.5 0.5C8.397 0.5 7.5 1.397 7.5 2.5V2.778C7.19733 2.59804 6.85213 2.50207 6.5 2.5C5.397 2.5 4.5 3.397 4.5 4.5V10.555C4.17489 10.2211 3.78617 9.95567 3.35678 9.77446C2.92739 9.59326 2.46605 9.49994 2 9.5C1.173 9.5 0.5 10.173 0.5 11C0.5 12.026 0.5815 13.8975 0.7415 16.5635C0.891702 19.166 1.85675 21.6553 3.5 23.679V31.5H15.5V23.6495C16.5985 21.9528 17.2658 20.0134 17.444 18H17.5505C17.6665 18.5642 17.9735 19.0712 18.4197 19.4355C18.8659 19.7998 19.424 19.9992 20 20H28C29.93 20 31.5 18.43 31.5 16.5V10.5C31.5 9.1215 30.3785 8 29 8ZM17.5 16V17H15.118L13.5655 16.224C13.5415 16.2123 13.5222 16.1927 13.5107 16.1686C13.4993 16.1444 13.4964 16.1171 13.5025 16.0911C13.5086 16.0651 13.5233 16.0419 13.5443 16.0253C13.5653 16.0088 13.5913 15.9999 13.618 16H17.5ZM14.584 23.2225L14.5 23.3485V30.5H8.7405C8.93281 30.1631 9.20169 29.8761 9.52542 29.6624C9.84914 29.4486 10.2186 29.314 10.604 29.2695L11.388 29.1825C11.9689 29.1184 12.5056 28.8422 12.8954 28.4068C13.2851 27.9714 13.5004 27.4074 13.5 26.823C13.4993 26.2071 13.2544 25.6166 12.8189 25.1811C12.3834 24.7456 11.7929 24.5007 11.177 24.5H11C10.173 24.5 9.5 25.173 9.5 26C9.5 26.827 10.173 27.5 11 27.5H11.5V26.5H11C10.7245 26.5 10.5 26.2755 10.5 26C10.5 25.7245 10.7245 25.5 11 25.5H11.177C11.5278 25.5004 11.864 25.6399 12.1121 25.8879C12.3601 26.136 12.4996 26.4722 12.5 26.823C12.5003 27.1612 12.3758 27.4876 12.1503 27.7396C11.9247 27.9915 11.6141 28.1514 11.278 28.1885L10.494 28.2755C9.1955 28.4195 8.0975 29.2965 7.642 30.5H6.138C6.50856 29.2619 7.26653 28.1753 8.3005 27.4L7.7005 26.6C6.41567 27.5653 5.50049 28.9418 5.1075 30.5H4.5V23.319L4.384 23.18C2.80825 21.2963 1.88098 18.9553 1.7395 16.5035C1.583 13.895 1.5 11.9915 1.5 11C1.5 10.7245 1.7245 10.5 2 10.5C3.3785 10.5 4.5 11.6215 4.5 13V17H5.5V4.5C5.5 3.9485 5.9485 3.5 6.5 3.5C7.0515 3.5 7.5 3.9485 7.5 4.5V14H8.5V2.5C8.5 1.9485 8.9485 1.5 9.5 1.5C10.0515 1.5 10.5 1.9485 10.5 2.5V14H11.5V4.5C11.5 3.9485 11.9485 3.5 12.5 3.5C13.0515 3.5 13.5 3.9485 13.5 4.5V14H14.5V8.5C14.5 7.9485 14.9485 7.5 15.5 7.5C16.0515 7.5 16.5 7.9485 16.5 8.5V15H13.618C13.3216 15.0003 13.0374 15.1181 12.8277 15.3277C12.6181 15.5374 12.5003 15.8216 12.5 16.118C12.5 16.544 12.737 16.9275 13.118 17.118L14.671 17.8945C14.809 17.9635 14.9635 18 15.118 18H16.441C16.2605 19.867 15.6227 21.6607 14.584 23.2225ZM29 9C29.827 9 30.5 9.673 30.5 10.5V14.513C30.081 14.1955 29.565 14 29 14C28.435 14 27.919 14.1955 27.5 14.513V10.5C27.5 9.673 28.173 9 29 9ZM18.5 17.5V15.5C18.5 14.673 19.173 14 20 14H20.5V19H20C19.173 19 18.5 18.327 18.5 17.5ZM28 19H21.5V14H26.5V16.5C26.5 17.327 27.173 18 28 18C28.827 18 29.5 17.327 29.5 16.5V16H28.5V16.5C28.5 16.7755 28.2755 17 28 17C27.7245 17 27.5 16.7755 27.5 16.5C27.5 15.673 28.173 15 29 15C29.827 15 30.5 15.673 30.5 16.5C30.5 17.8785 29.3785 19 28 19Z" fill="#6B7280"/>
</svg>
