<svg width="166" height="60" viewBox="0 0 166 60" fill="none" xmlns="http://www.w3.org/2000/svg">
<g clip-path="url(#clip0_1_80341)">
<path d="M5.10959 44.1567C3.45549 44.1567 2.18933 43.7149 1.31649 42.8205C0.438253 41.9315 0.00183105 40.5737 0.00183105 38.7472V18.0791H4.6139V38.5748C4.6139 39.6955 5.07726 40.2558 6.01476 40.2558C6.28416 40.2558 6.57511 40.2127 6.87683 40.1265L7.09235 40.1912L7.52338 43.7257C7.26476 43.855 6.91993 43.9519 6.4889 44.0274C6.06864 44.1136 5.61067 44.1567 5.10959 44.1567Z" fill="#9333EA"/>
<path d="M15.1839 44.1562C14.0039 44.1562 12.9856 43.9407 12.1235 43.5097C11.2615 43.0786 10.5934 42.4482 10.1192 41.6131C9.65586 40.7672 9.42957 39.7543 9.42957 38.5743C9.42957 37.4967 9.65586 36.5916 10.1192 35.8588C10.5934 35.1153 11.3153 34.501 12.2959 34.0269C13.2712 33.5528 14.5427 33.1972 16.1106 32.9493C17.2151 32.7661 18.0503 32.5722 18.6106 32.3674C19.1817 32.1519 19.5697 31.9148 19.7744 31.6562C19.9737 31.3868 20.0761 31.042 20.0761 30.6217C20.0761 30.0345 19.866 29.5873 19.4511 29.2855C19.047 28.973 18.3735 28.8114 17.4253 28.8114C16.4015 28.8114 15.4263 29.0431 14.4942 29.501C13.5729 29.9482 12.7755 30.5463 12.102 31.2898H11.7787L9.83905 28.3804C10.7712 27.3459 11.908 26.5431 13.2442 25.9666C14.5912 25.3954 16.0567 25.1045 17.6408 25.1045C20.0815 25.1045 21.8434 25.6217 22.9209 26.6562C24.0093 27.6799 24.5589 29.1454 24.5589 31.0528V39.0269C24.5589 39.8459 24.9145 40.2554 25.6365 40.2554C25.922 40.2554 26.1968 40.2069 26.4554 40.1045L26.6925 40.1691L27.0158 43.3804C26.7679 43.5528 26.4177 43.6929 25.9597 43.7898C25.4964 43.8868 24.9953 43.9407 24.4511 43.9407C23.3574 43.9407 22.5007 43.736 21.8865 43.3157C21.2669 42.8847 20.8304 42.2273 20.5718 41.3329L20.2054 41.2898C19.311 43.2026 17.6408 44.1562 15.1839 44.1562ZM16.6494 40.7079C17.7108 40.7079 18.5567 40.3577 19.1925 39.6519C19.839 38.9353 20.1623 37.9385 20.1623 36.6562V34.7812L19.839 34.7166C19.5643 34.9482 19.2033 35.1422 18.7615 35.2985C18.3143 35.4439 17.6677 35.5894 16.8218 35.7295C15.8143 35.8911 15.0869 36.1767 14.6451 36.5916C14.214 36.9957 13.9985 37.5614 13.9985 38.2941C13.9985 39.0862 14.2248 39.6896 14.6882 40.1045C15.1623 40.5086 15.8143 40.7079 16.6494 40.7079Z" fill="#9333EA"/>
<path d="M40.0187 43.8123H34.523L27.7343 25.4502H32.5618L37.1308 38.5321H37.5187L42.0877 25.4502H46.8075L40.0187 43.8123Z" fill="#9333EA"/>
<path d="M65.2722 35.6648H53.4618C53.6019 37.2758 54.0653 38.445 54.8411 39.1778C55.617 39.8998 56.673 40.2554 58.0092 40.2554C59.0707 40.2554 59.9273 40.0614 60.5739 39.6735C61.2312 39.2748 61.7646 38.6713 62.1687 37.8631H62.5135L65.5739 39.8243C64.9704 41.1174 64.0653 42.1681 62.8584 42.9709C61.6515 43.7629 60.0351 44.1562 58.0092 44.1562C56.1127 44.1562 54.4748 43.8006 53.0954 43.0786C51.7161 42.362 50.6439 41.2898 49.8842 39.8674C49.1353 38.4342 48.7635 36.6885 48.7635 34.6304C48.7635 32.5506 49.1569 30.7941 49.9489 29.3717C50.7355 27.9385 51.8023 26.8663 53.1385 26.1605C54.4855 25.4601 56.0049 25.1045 57.686 25.1045C60.2722 25.1045 62.2549 25.7941 63.6342 27.1735C65.0243 28.542 65.7248 30.5571 65.7248 33.2295C65.7248 34.1939 65.687 34.9429 65.617 35.4709L65.2722 35.6648ZM61.3067 32.6907C61.2635 31.3006 60.9403 30.2877 60.3368 29.6519C59.7334 29.0054 58.8498 28.6821 57.686 28.6821C55.3584 28.6821 53.9845 30.0183 53.5696 32.6907H61.3067Z" fill="#9333EA"/>
<path d="M75.6823 44.1562C74.4162 44.1562 73.2578 44.0107 72.2125 43.7252C71.178 43.4235 70.2836 43.014 69.5401 42.4967C68.8073 41.9795 68.2685 41.3922 67.9237 40.7295L70.4884 37.9709H70.8332C71.4366 38.7898 72.1532 39.4095 72.9884 39.8243C73.8181 40.2284 74.7233 40.4278 75.7039 40.4278C76.6091 40.4278 77.2825 40.2715 77.7297 39.9536C78.1877 39.625 78.4194 39.167 78.4194 38.5743C78.4194 38.1002 78.2524 37.7069 77.9237 37.389C77.5897 37.0765 77.0616 36.8286 76.3289 36.6562L73.9151 36.0743C72.0886 35.6433 70.7524 34.986 69.9065 34.0916C69.0713 33.1864 68.6565 32.0549 68.6565 30.6864C68.6565 29.5388 68.942 28.5474 69.5185 27.7123C70.1058 26.8663 70.9302 26.2198 71.997 25.7726C73.0584 25.3308 74.2922 25.1045 75.7039 25.1045C77.3526 25.1045 78.7265 25.3416 79.8203 25.8157C80.9086 26.2898 81.7599 26.931 82.3634 27.7338L79.9065 30.3847H79.5616C79.0552 29.8135 78.4841 29.3933 77.8375 29.1347C77.2017 28.8653 76.4905 28.7252 75.7039 28.7252C73.8774 28.7252 72.9668 29.2963 72.9668 30.4278C72.9668 30.9019 73.1392 31.2898 73.4841 31.5916C73.8289 31.8933 74.4216 32.1411 75.2728 32.3243L77.5358 32.82C79.4 33.2241 80.7685 33.8707 81.6306 34.7597C82.4927 35.6379 82.9237 36.8179 82.9237 38.2941C82.9237 39.4579 82.6274 40.487 82.0401 41.376C81.4636 42.2704 80.6284 42.9601 79.5401 43.445C78.4625 43.9191 77.1748 44.1562 75.6823 44.1562Z" fill="#9333EA"/>
<path d="M94.7216 44.1562C92.9382 44.1562 91.3649 43.7898 90.0018 43.0571C88.6332 42.3135 87.5664 41.2252 86.7906 39.8028C86.0255 38.3696 85.6483 36.6454 85.6483 34.6304C85.6483 32.6207 86.0255 30.8965 86.7906 29.4579C87.5664 28.0248 88.6278 26.9364 89.9802 26.2036C91.3434 25.4709 92.8951 25.1045 94.6354 25.1045C98.4985 25.1045 100.977 26.5054 102.071 29.3071L98.9026 31.57H98.5578C98.1806 30.7079 97.6957 30.0722 97.0923 29.6519C96.4888 29.2209 95.6699 29.0054 94.6354 29.0054C93.2992 29.0054 92.2539 29.4741 91.5104 30.4062C90.7776 31.3276 90.4112 32.7338 90.4112 34.6304C90.4112 36.5269 90.783 37.9439 91.5319 38.876C92.2916 39.7974 93.3531 40.2554 94.7216 40.2554C95.713 40.2554 96.5535 39.9913 97.2431 39.4579C97.9436 38.9138 98.45 38.1325 98.7518 37.1088L99.0966 37.0873L102.372 38.876C101.909 40.4278 101.047 41.6993 99.7862 42.6907C98.5201 43.6713 96.8337 44.1562 94.7216 44.1562Z" fill="#9333EA"/>
<path d="M110.088 44.1562C108.908 44.1562 107.89 43.9407 107.028 43.5097C106.166 43.0786 105.498 42.4482 105.024 41.6131C104.56 40.7672 104.334 39.7543 104.334 38.5743C104.334 37.4967 104.56 36.5916 105.024 35.8588C105.498 35.1153 106.22 34.501 107.2 34.0269C108.175 33.5528 109.447 33.1972 111.015 32.9493C112.119 32.7661 112.955 32.5722 113.515 32.3674C114.086 32.1519 114.474 31.9148 114.679 31.6562C114.878 31.3868 114.98 31.042 114.98 30.6217C114.98 30.0345 114.77 29.5873 114.355 29.2855C113.951 28.973 113.278 28.8114 112.33 28.8114C111.306 28.8114 110.331 29.0431 109.399 29.501C108.477 29.9482 107.68 30.5463 107.006 31.2898H106.683L104.743 28.3804C105.675 27.3459 106.812 26.5431 108.149 25.9666C109.496 25.3954 110.961 25.1045 112.545 25.1045C114.986 25.1045 116.748 25.6217 117.825 26.6562C118.914 27.6799 119.463 29.1454 119.463 31.0528V39.0269C119.463 39.8459 119.819 40.2554 120.541 40.2554C120.826 40.2554 121.101 40.2069 121.36 40.1045L121.597 40.1691L121.92 43.3804C121.672 43.5528 121.322 43.6929 120.864 43.7898C120.401 43.8868 119.9 43.9407 119.355 43.9407C118.262 43.9407 117.405 43.736 116.791 43.3157C116.171 42.8847 115.735 42.2273 115.476 41.3329L115.11 41.2898C114.215 43.2026 112.545 44.1562 110.088 44.1562ZM111.554 40.7079C112.615 40.7079 113.461 40.3577 114.097 39.6519C114.743 38.9353 115.067 37.9385 115.067 36.6562V34.7812L114.743 34.7166C114.469 34.9482 114.108 35.1422 113.666 35.2985C113.219 35.4439 112.572 35.5894 111.726 35.7295C110.719 35.8911 109.991 36.1767 109.549 36.5916C109.118 36.9957 108.903 37.5614 108.903 38.2941C108.903 39.0862 109.129 39.6896 109.592 40.1045C110.067 40.5086 110.719 40.7079 111.554 40.7079Z" fill="#9333EA"/>
<path d="M124.941 51.2467V25.4493H129.553V27.8416L129.898 27.9062C130.442 26.9741 131.17 26.2791 132.075 25.8157C132.991 25.3416 134.063 25.1045 135.286 25.1045C136.752 25.1045 138.034 25.4601 139.144 26.1605C140.248 26.8502 141.11 27.917 141.73 29.3502C142.344 30.7726 142.657 32.5344 142.657 34.6304C142.657 36.7316 142.323 38.4881 141.665 39.9105C141.019 41.3329 140.119 42.3997 138.971 43.1002C137.818 43.806 136.493 44.1562 134.984 44.1562C133.831 44.1562 132.84 43.9676 132.01 43.5959C131.175 43.2079 130.469 42.6153 129.898 41.8071L129.553 41.8717V51.2467H124.941ZM133.691 40.2554C135.071 40.2554 136.11 39.8135 136.816 38.9191C137.533 38.014 137.894 36.5862 137.894 34.6304C137.894 32.6907 137.533 31.2683 136.816 30.3631C136.11 29.4579 135.071 29.0054 133.691 29.0054C132.409 29.0054 131.391 29.4741 130.631 30.4062C129.866 31.3437 129.489 32.75 129.489 34.6304C129.489 36.5161 129.866 37.9224 130.631 38.8545C131.391 39.792 132.409 40.2554 133.691 40.2554Z" fill="#9333EA"/>
<path d="M162.421 35.6648H150.61C150.75 37.2758 151.214 38.445 151.99 39.1778C152.765 39.8998 153.821 40.2554 155.158 40.2554C156.219 40.2554 157.076 40.0614 157.722 39.6735C158.38 39.2748 158.913 38.6713 159.317 37.8631H159.662L162.722 39.8243C162.119 41.1174 161.214 42.1681 160.007 42.9709C158.8 43.7629 157.184 44.1562 155.158 44.1562C153.261 44.1562 151.623 43.8006 150.244 43.0786C148.865 42.362 147.792 41.2898 147.033 39.8674C146.284 38.4342 145.912 36.6885 145.912 34.6304C145.912 32.5506 146.305 30.7941 147.097 29.3717C147.884 27.9385 148.951 26.8663 150.287 26.1605C151.634 25.4601 153.153 25.1045 154.834 25.1045C157.421 25.1045 159.403 25.7941 160.783 27.1735C162.173 28.542 162.873 30.5571 162.873 33.2295C162.873 34.1939 162.835 34.9429 162.765 35.4709L162.421 35.6648ZM158.455 32.6907C158.412 31.3006 158.089 30.2877 157.485 29.6519C156.882 29.0054 155.998 28.6821 154.834 28.6821C152.507 28.6821 151.133 30.0183 150.718 32.6907H158.455Z" fill="#9333EA"/>
<path d="M103.007 16.3659C101.38 16.3659 100.152 16.1558 99.3221 15.7409C98.5031 15.3099 98.0936 14.5987 98.0936 13.6073C98.0936 13.2625 98.126 12.9069 98.2014 12.5297C98.2876 12.158 98.3792 11.797 98.4816 11.4521L99.4945 11.7108C99.4352 11.9155 99.3706 12.1741 99.3005 12.4866C99.2413 12.7884 99.2143 13.0578 99.2143 13.284C99.2143 13.7582 99.3275 14.1407 99.5591 14.4263C99.8016 14.7172 100.227 14.922 100.831 15.0513C101.434 15.1806 102.275 15.2453 103.352 15.2453C103.913 15.2453 104.5 15.2183 105.119 15.159C105.734 15.089 106.348 14.9651 106.951 14.7927C107.566 14.6095 108.158 14.3616 108.719 14.0599C109.279 13.7582 109.764 13.3649 110.184 12.8746L111.046 13.3918C110.96 13.5965 110.901 13.7582 110.874 13.8875C110.841 14.006 110.831 14.1138 110.831 14.2108C110.831 14.3562 110.879 14.4909 110.982 14.6203C111.079 14.7388 111.267 14.8358 111.542 14.922C111.811 14.9974 112.21 15.0297 112.727 15.0297C112.91 15.0297 113.051 15.089 113.137 15.2021C113.234 15.3045 113.288 15.4284 113.288 15.5685C113.288 15.714 113.223 15.8487 113.094 15.978C112.964 16.0912 112.797 16.1504 112.598 16.1504C111.79 16.1504 111.132 16.0373 110.615 15.8056C110.109 15.5631 109.85 15.1752 109.839 14.6418C109.074 15.2183 108.094 15.6493 106.887 15.9349C105.691 16.2205 104.398 16.3659 103.007 16.3659ZM103.999 18.9737C103.81 18.9737 103.643 18.909 103.503 18.7797C103.374 18.6504 103.309 18.4888 103.309 18.3056C103.309 18.117 103.374 17.95 103.503 17.8099C103.643 17.6806 103.81 17.6159 103.999 17.6159C104.182 17.6159 104.344 17.6806 104.473 17.8099C104.602 17.95 104.667 18.117 104.667 18.3056C104.667 18.4888 104.602 18.6504 104.473 18.7797C104.344 18.909 104.182 18.9737 103.999 18.9737Z" fill="#9333EA"/>
<path d="M112.578 16.1495L112.707 15.0288C113.165 15.0288 113.516 15.0018 113.763 14.9426C114.022 14.8725 114.216 14.7432 114.345 14.5546C114.485 14.3553 114.593 14.0697 114.669 13.6926C114.755 13.3208 114.852 12.8305 114.97 12.2271L116.048 12.421C115.989 12.6689 115.924 12.9544 115.854 13.2831C115.778 13.601 115.746 13.865 115.746 14.0805C115.746 14.2098 115.751 14.3391 115.768 14.4684C115.795 14.587 115.865 14.6839 115.983 14.7702C116.096 14.8456 116.296 14.9102 116.587 14.9641C116.872 15.0072 117.276 15.0288 117.794 15.0288C117.993 15.0288 118.138 15.088 118.225 15.2012C118.311 15.3036 118.354 15.4275 118.354 15.5676C118.354 15.713 118.289 15.8477 118.16 15.9771C118.031 16.0902 117.864 16.1495 117.664 16.1495C117.072 16.1495 116.614 16.1171 116.285 16.0633C115.951 15.9932 115.708 15.8908 115.552 15.7615C115.391 15.6214 115.277 15.449 115.207 15.2443C114.933 15.6214 114.604 15.8639 114.216 15.9771C113.828 16.0902 113.278 16.1495 112.578 16.1495ZM116.026 18.7357C115.838 18.7357 115.671 18.6602 115.531 18.5202C115.401 18.3908 115.337 18.24 115.337 18.0676C115.337 17.879 115.401 17.712 115.531 17.5719C115.671 17.4426 115.838 17.3779 116.026 17.3779C116.199 17.3779 116.35 17.4426 116.479 17.5719C116.619 17.712 116.694 17.879 116.694 18.0676C116.694 18.24 116.619 18.3908 116.479 18.5202C116.35 18.6602 116.199 18.7357 116.026 18.7357ZM114.151 18.7357C113.963 18.7357 113.796 18.6602 113.656 18.5202C113.526 18.3908 113.462 18.24 113.462 18.0676C113.462 17.879 113.526 17.712 113.656 17.5719C113.796 17.4426 113.963 17.3779 114.151 17.3779C114.334 17.3779 114.496 17.4426 114.625 17.5719C114.755 17.712 114.819 17.879 114.819 18.0676C114.819 18.24 114.755 18.3908 114.625 18.5202C114.496 18.6602 114.334 18.7357 114.151 18.7357Z" fill="#9333EA"/>
<path d="M117.664 16.1505L117.793 15.0298H118.849C119.609 15.0298 120.169 14.9975 120.53 14.922C120.886 14.8358 121.123 14.7281 121.242 14.5988C121.355 14.4695 121.414 14.3294 121.414 14.1677C121.414 13.9522 121.328 13.7151 121.155 13.4565C120.994 13.1871 120.789 12.9123 120.53 12.6376C120.282 12.352 120.018 12.0718 119.733 11.797C119.442 11.5276 119.173 11.2798 118.914 11.0643C118.666 10.838 118.461 10.6333 118.289 10.4608C118.127 10.2884 118.052 10.1699 118.052 10.0945C118.052 9.8951 118.073 9.70114 118.117 9.51256C118.16 9.32937 118.23 9.1839 118.332 9.08153C118.575 8.82291 118.935 8.55351 119.41 8.26256C119.895 7.977 120.45 7.68066 121.069 7.37894C121.683 7.07722 122.319 6.76472 122.966 6.43066L123.418 7.4436C122.61 7.84769 121.823 8.23562 121.048 8.60739C120.282 8.98454 119.625 9.37247 119.065 9.77118C119.55 10.2022 120.013 10.6225 120.444 11.0212C120.886 11.4091 121.295 11.8348 121.673 12.2927C122.044 12.7561 122.389 13.2787 122.707 13.866C122.89 14.227 123.106 14.4856 123.354 14.6419C123.612 14.8035 123.86 14.9113 124.108 14.9651C124.35 15.0083 124.56 15.0298 124.733 15.0298C124.916 15.0298 125.056 15.0891 125.142 15.2022C125.229 15.3046 125.272 15.4285 125.272 15.5686C125.272 15.7141 125.207 15.8488 125.078 15.9781C124.948 16.0912 124.787 16.1505 124.604 16.1505C124.372 16.1505 124.113 16.1182 123.828 16.0643C123.537 16.0104 123.251 15.9026 122.966 15.741C122.675 15.5686 122.427 15.3208 122.211 14.9867C122.023 15.2453 121.791 15.4608 121.522 15.6333C121.247 15.8057 120.886 15.935 120.444 16.0212C120.013 16.1074 119.464 16.1505 118.806 16.1505H117.664Z" fill="#9333EA"/>
<path d="M124.59 16.1497L124.719 15.029C125.021 15.029 125.258 15.0182 125.43 14.9859C125.613 14.9428 125.764 14.835 125.883 14.6626C126.012 14.4902 126.125 14.2262 126.228 13.8652C126.341 13.5096 126.47 12.9978 126.616 12.335L127.65 12.6152C127.591 12.8631 127.526 13.1432 127.456 13.4557C127.381 13.7736 127.348 14.0592 127.348 14.3178C127.348 14.5495 127.435 14.7273 127.607 14.8566C127.779 14.9751 128.092 15.029 128.555 15.029C128.825 15.029 129.051 15.0075 129.223 14.9644C129.396 14.9213 129.53 14.8135 129.633 14.6411C129.746 14.4687 129.848 14.1993 129.935 13.8221C130.032 13.4342 130.134 12.9062 130.236 12.2273L131.271 12.4213C131.238 12.5937 131.206 12.8038 131.163 13.0463C131.131 13.2779 131.104 13.5096 131.077 13.7359C131.044 13.9676 131.034 14.1616 131.034 14.3178C131.034 14.4471 131.061 14.571 131.12 14.6842C131.174 14.7866 131.292 14.8728 131.465 14.9428C131.648 15.0021 131.917 15.029 132.262 15.029C132.661 15.029 132.979 14.959 133.21 14.8135C133.453 14.6572 133.577 14.3394 133.577 13.8652C133.577 13.5204 133.491 13.0894 133.318 12.5721C133.157 12.0441 132.979 11.5161 132.779 10.9988L133.9 10.5894C133.997 10.8911 134.099 11.2305 134.202 11.6023C134.315 11.9633 134.407 12.3297 134.482 12.7014C134.568 13.0624 134.611 13.3803 134.611 13.6497C134.611 14.501 134.396 15.1314 133.965 15.5463C133.544 15.9503 132.979 16.1497 132.262 16.1497C131.756 16.1497 131.362 16.085 131.077 15.9557C130.786 15.8264 130.581 15.6217 130.452 15.3307C130.236 15.6756 129.978 15.9019 129.676 15.9988C129.374 16.0958 128.943 16.1497 128.383 16.1497C128.194 16.1497 127.995 16.1281 127.779 16.085C127.564 16.0419 127.359 15.9557 127.176 15.8264C127.004 15.6863 126.863 15.4816 126.766 15.223C126.519 15.6271 126.217 15.8857 125.861 15.9988C125.516 16.0958 125.091 16.1497 124.59 16.1497Z" fill="#9333EA"/>
<path d="M139.021 16.1057C139.021 15.777 139.064 15.4106 139.151 15.0065C139.248 14.6078 139.399 14.166 139.603 13.6919L140.573 14.0583C140.428 14.4462 140.32 14.8018 140.25 15.1143C140.174 15.4322 140.142 15.7285 140.142 15.9979C140.142 16.5152 140.282 16.9247 140.573 17.2264C140.875 17.5389 141.268 17.7706 141.758 17.916C142.243 18.0723 142.777 18.1531 143.353 18.1531C144.054 18.1531 144.695 18.0669 145.271 17.8945C145.842 17.7328 146.306 17.5173 146.651 17.2479C147.006 16.9731 147.189 16.6768 147.189 16.3643C147.189 16.1165 147.001 15.9117 146.629 15.7393C146.268 15.5669 145.756 15.3891 145.099 15.2005L145.358 14.0798C146.306 14.457 147.044 14.7048 147.577 14.8341C148.105 14.9634 148.51 15.0281 148.784 15.0281C148.984 15.0281 149.129 15.0874 149.215 15.2005C149.302 15.3029 149.345 15.4268 149.345 15.5669C149.345 15.7124 149.28 15.8471 149.151 15.9764C149.021 16.0895 148.854 16.1488 148.655 16.1488H148.138C148.149 16.235 148.165 16.2997 148.181 16.3428C148.192 16.3966 148.202 16.4721 148.202 16.5583C148.202 17.0001 147.992 17.4257 147.577 17.8298C147.173 18.2447 146.586 18.5841 145.81 18.8428C145.045 19.1122 144.129 19.2522 143.052 19.2522C142.33 19.2522 141.661 19.1337 141.047 18.9074C140.444 18.6757 139.953 18.3255 139.582 17.8514C139.205 17.388 139.021 16.8061 139.021 16.1057ZM144.043 21.8384C143.854 21.8384 143.687 21.763 143.547 21.6229C143.418 21.4936 143.353 21.3428 143.353 21.1703C143.353 20.9818 143.418 20.8147 143.547 20.6747C143.687 20.5453 143.854 20.4807 144.043 20.4807C144.215 20.4807 144.366 20.5453 144.496 20.6747C144.636 20.8147 144.711 20.9818 144.711 21.1703C144.711 21.3428 144.636 21.4936 144.496 21.6229C144.366 21.763 144.215 21.8384 144.043 21.8384ZM142.168 21.8384C141.979 21.8384 141.812 21.763 141.672 21.6229C141.543 21.4936 141.478 21.3428 141.478 21.1703C141.478 20.9818 141.543 20.8147 141.672 20.6747C141.812 20.5453 141.979 20.4807 142.168 20.4807C142.351 20.4807 142.513 20.5453 142.642 20.6747C142.771 20.8147 142.836 20.9818 142.836 21.1703C142.836 21.3428 142.771 21.4936 142.642 21.6229C142.513 21.763 142.351 21.8384 142.168 21.8384Z" fill="#9333EA"/>
<path d="M148.648 16.1503L148.778 15.0296C149.079 15.0296 149.424 15.0296 149.812 15.0296C150.2 15.0296 150.572 15.0188 150.933 14.9865C151.305 14.9434 151.59 14.8895 151.795 14.8141C152.08 14.7171 152.312 14.5878 152.485 14.4262C152.668 14.2699 152.808 14.0598 152.894 13.8012C152.732 13.8604 152.56 13.9035 152.377 13.9305C152.188 13.9466 152 13.952 151.816 13.952C151.127 13.952 150.593 13.7958 150.222 13.4779C149.844 13.1492 149.661 12.7343 149.661 12.2279C149.661 11.883 149.71 11.5382 149.812 11.1934C149.925 10.8378 150.082 10.5145 150.286 10.2236C150.486 9.93801 150.723 9.70632 150.997 9.53391C151.283 9.35072 151.601 9.25374 151.946 9.25374C152.431 9.25374 152.835 9.42076 153.153 9.74943C153.481 10.0673 153.724 10.4822 153.885 10.9994C154.042 11.5059 154.122 12.0447 154.122 12.6158C154.122 13.2947 154.004 13.8766 153.778 14.3615C153.546 14.8518 153.163 15.2559 152.635 15.5684C152.344 15.73 151.989 15.8486 151.558 15.9348C151.138 16.021 150.68 16.0802 150.178 16.1072C149.688 16.1341 149.176 16.1503 148.648 16.1503ZM150.739 11.9477C150.739 12.2387 150.825 12.4649 150.997 12.6374C151.181 12.799 151.499 12.8744 151.946 12.8744C152.334 12.8744 152.705 12.8259 153.066 12.7236C153.066 12.6697 153.066 12.605 153.066 12.5296C153.066 12.1578 153.013 11.8076 152.916 11.4736C152.813 11.1449 152.668 10.8809 152.485 10.6762C152.312 10.4768 152.097 10.3744 151.838 10.3744C151.622 10.3744 151.428 10.4552 151.256 10.6115C151.094 10.7731 150.965 10.9725 150.868 11.2149C150.782 11.4628 150.739 11.7052 150.739 11.9477ZM151.687 7.85288C151.499 7.85288 151.332 7.78822 151.191 7.65891C151.062 7.51882 150.997 7.35719 150.997 7.18477C150.997 7.00158 151.062 6.83994 151.191 6.71063C151.332 6.57055 151.499 6.49512 151.687 6.49512C151.87 6.49512 152.032 6.57055 152.161 6.71063C152.291 6.83994 152.355 7.00158 152.355 7.18477C152.355 7.35719 152.291 7.51882 152.161 7.65891C152.032 7.78822 151.87 7.85288 151.687 7.85288Z" fill="#9333EA"/>
<path d="M160.109 8.77812C160.109 8.57876 160.093 8.3417 160.066 8.06691C160.033 7.78135 160.001 7.49579 159.958 7.20484C159.926 6.91928 159.893 6.67683 159.85 6.47208L161.035 6.34277C161.062 6.53135 161.089 6.77381 161.122 7.07553C161.149 7.36648 161.17 7.65743 161.186 7.95915C161.213 8.2501 161.229 8.48717 161.229 8.67036C161.229 9.24687 161.17 9.80721 161.057 10.3514C160.955 10.8848 160.788 11.402 160.561 11.9031C160.976 12.3503 161.283 12.7598 161.488 13.1316C161.687 13.5087 161.79 13.8805 161.79 14.2523C161.79 14.5109 161.725 14.7857 161.596 15.0712C161.477 15.3622 161.251 15.6046 160.906 15.804C160.572 15.9926 160.087 16.0842 159.441 16.0842H156.316V14.985C157.679 14.0098 158.649 13.04 159.225 12.0755C158.719 11.6176 158.126 11.1273 157.436 10.61C156.747 10.0928 156.025 9.57014 155.281 9.03674L155.928 8.13157C156.73 8.73501 157.447 9.28458 158.083 9.7695C158.713 10.2436 159.252 10.6908 159.699 11.1057C159.839 10.7501 159.942 10.3729 160.001 9.98501C160.071 9.59708 160.109 9.19838 160.109 8.77812ZM157.932 14.9635H159.656C160.114 14.9635 160.416 14.888 160.561 14.7264C160.701 14.554 160.777 14.3546 160.777 14.1229C160.777 13.9667 160.712 13.7781 160.583 13.5626C160.454 13.3471 160.27 13.11 160.044 12.8514C159.785 13.2393 159.473 13.6165 159.117 13.9721C158.773 14.3169 158.374 14.651 157.932 14.9635Z" fill="#9333EA"/>
<path d="M4.51875 54.7157H0.818296C0.834111 55.372 0.992248 55.8543 1.29271 56.1706C1.58527 56.471 1.98853 56.6134 2.49457 56.6134C2.87411 56.6134 3.17457 56.5501 3.41178 56.4236C3.64108 56.2813 3.83085 56.0599 3.98108 55.7594H4.07596L4.58201 56.0757C4.43178 56.4552 4.17876 56.7636 3.82294 56.9929C3.48294 57.2064 3.04015 57.3092 2.49457 57.3092C1.96481 57.3092 1.51411 57.2143 1.13457 57.0245C0.770855 56.8189 0.486202 56.5027 0.280622 56.0757C0.0908552 55.6566 -0.00402832 55.1427 -0.00402832 54.5259C-0.00402832 53.9171 0.0987617 53.4031 0.31225 52.9762C0.517832 52.5571 0.802481 52.2487 1.1662 52.059C1.54574 51.8534 1.96481 51.7427 2.43132 51.7427C3.12713 51.7427 3.6648 51.9324 4.04434 52.312C4.43969 52.6915 4.64527 53.2766 4.64527 54.0515C4.64527 54.352 4.62945 54.5496 4.61364 54.6524L4.51875 54.7157ZM3.85457 54.0515C3.85457 53.4822 3.72806 53.071 3.47504 52.818C3.23783 52.5492 2.88992 52.4069 2.43132 52.4069C1.96481 52.4069 1.59318 52.5492 1.32434 52.818C1.07132 53.071 0.91318 53.4822 0.849924 54.0515H3.85457Z" fill="black"/>
<path d="M6.24787 57.2146H5.39392L7.03857 54.4314L5.45718 51.8379H6.37438L7.60787 53.8937H7.73438L8.96787 51.8379H9.82182L8.30368 54.4314L9.9167 57.2146H9.03112L7.70275 54.9374H7.57624L6.24787 57.2146Z" fill="black"/>
<path d="M11.1112 59.3966V51.8376H11.9019V52.6283L11.9968 52.6599C12.3921 52.051 12.9852 51.7427 13.7679 51.7427C14.2107 51.7427 14.5982 51.8534 14.9382 52.059C15.2703 52.2487 15.5233 52.5571 15.6972 52.9762C15.887 53.4031 15.9819 53.9171 15.9819 54.5259C15.9819 55.1427 15.887 55.6566 15.6972 56.0757C15.5075 56.5027 15.2307 56.8189 14.8749 57.0245C14.5349 57.2143 14.1475 57.3092 13.7047 57.3092C13.341 57.3092 13.0168 57.2459 12.7242 57.1194C12.4475 56.9929 12.2024 56.7873 11.9968 56.4869L11.9019 56.5185V59.3966H11.1112ZM13.5149 56.6134C14.6061 56.6134 15.1596 55.9176 15.1596 54.5259C15.1596 53.1343 14.6061 52.4385 13.5149 52.4385C13.1986 52.4385 12.914 52.5176 12.661 52.6599C12.4238 52.8101 12.234 53.0394 12.0917 53.3557C11.9652 53.6562 11.9019 54.0436 11.9019 54.5259C11.9019 54.9924 11.9652 55.3799 12.0917 55.6962C12.234 56.0124 12.4238 56.2496 12.661 56.392C12.914 56.5422 13.1986 56.6134 13.5149 56.6134Z" fill="black"/>
<path d="M18.7446 57.3092C18.3651 57.3092 18.0567 57.2064 17.8274 56.9929C17.6139 56.7874 17.5111 56.4553 17.5111 56.0125V49.6553H18.3018V55.9808C18.3018 56.1943 18.3413 56.3525 18.4283 56.4553C18.5074 56.566 18.6497 56.6134 18.8395 56.6134C18.9423 56.6134 19.0609 56.5976 19.1874 56.5501L19.2506 56.5818L19.3455 57.1827C19.2823 57.2222 19.1953 57.2539 19.0925 57.2776C18.9818 57.2934 18.8711 57.3092 18.7446 57.3092Z" fill="black"/>
<path d="M22.623 57.3092C22.1169 57.3092 21.6742 57.2064 21.2946 56.9929C20.9151 56.7873 20.6146 56.471 20.409 56.0441C20.2193 55.625 20.1244 55.1189 20.1244 54.5259C20.1244 53.9408 20.2193 53.4348 20.409 53.0078C20.6146 52.5887 20.9151 52.2724 21.2946 52.059C21.6742 51.8534 22.1169 51.7427 22.623 51.7427C23.129 51.7427 23.556 51.8534 23.9197 52.059C24.2993 52.2724 24.5918 52.5887 24.8053 53.0078C25.0109 53.4348 25.1216 53.9408 25.1216 54.5259C25.1216 55.1189 25.0109 55.625 24.8053 56.0441C24.5918 56.471 24.2993 56.7873 23.9197 56.9929C23.556 57.2064 23.129 57.3092 22.623 57.3092ZM22.623 56.6134C23.1448 56.6134 23.5481 56.4473 23.8248 56.1073C24.1174 55.7752 24.2676 55.2455 24.2676 54.5259C24.2676 53.8143 24.1174 53.2845 23.8248 52.9445C23.5481 52.6124 23.1448 52.4385 22.623 52.4385C22.0695 52.4385 21.6504 52.6124 21.3579 52.9445C21.0811 53.2845 20.9467 53.8143 20.9467 54.5259C20.9467 55.2455 21.0811 55.7752 21.3579 56.1073C21.6504 56.4473 22.0695 56.6134 22.623 56.6134Z" fill="black"/>
<path d="M26.6576 57.2149V51.8382H27.4167V52.6921H27.5115C27.7646 52.0833 28.239 51.7749 28.9348 51.7749C29.2906 51.7749 29.5674 51.854 29.7571 51.9963L29.5357 52.6605L29.4408 52.6921C29.2274 52.5893 29.006 52.534 28.7767 52.534C28.3497 52.534 28.0255 52.6921 27.7962 53.0084C27.559 53.3247 27.4483 53.8544 27.4483 54.5898V57.2149H26.6576Z" fill="black"/>
<path d="M34.9948 54.7157H31.2944C31.3102 55.372 31.4683 55.8543 31.7688 56.1706C32.0613 56.471 32.4646 56.6134 32.9706 56.6134C33.3502 56.6134 33.6506 56.5501 33.8879 56.4236C34.1172 56.2813 34.3069 56.0599 34.4572 55.7594H34.552L35.0581 56.0757C34.9079 56.4552 34.6548 56.7636 34.299 56.9929C33.959 57.2064 33.5162 57.3092 32.9706 57.3092C32.4409 57.3092 31.9902 57.2143 31.6106 57.0245C31.2469 56.8189 30.9623 56.5027 30.7567 56.0757C30.5669 55.6566 30.472 55.1427 30.472 54.5259C30.472 53.9171 30.5748 53.4031 30.7883 52.9762C30.9939 52.5571 31.2786 52.2487 31.6423 52.059C32.0218 51.8534 32.4409 51.7427 32.9074 51.7427C33.6032 51.7427 34.1409 51.9324 34.5204 52.312C34.9158 52.6915 35.1213 53.2766 35.1213 54.0515C35.1213 54.352 35.1055 54.5496 35.0897 54.6524L34.9948 54.7157ZM34.3306 54.0515C34.3306 53.4822 34.2041 53.071 33.9511 52.818C33.7139 52.5492 33.366 52.4069 32.9074 52.4069C32.4409 52.4069 32.0693 52.5492 31.8004 52.818C31.5474 53.071 31.3893 53.4822 31.326 54.0515H34.3306Z" fill="black"/>
<path d="M41.3632 54.1151H38.58V53.3877H41.3632V54.1151Z" fill="black"/>
<path d="M47.9539 56.3611L48.2069 56.9304C48.0804 57.057 47.9064 57.1518 47.7009 57.2151C47.5111 57.2783 47.2897 57.31 47.0367 57.31C46.0009 57.31 45.4869 56.796 45.4869 55.7602V52.4709H44.5697V51.8384H45.4869V50.6998L46.2776 50.5732V51.8384H48.0171V52.4709H46.2776V55.6653C46.2776 56.2979 46.5464 56.6142 47.0999 56.6142C47.3925 56.6142 47.6455 56.5351 47.859 56.3611H47.9539Z" fill="black"/>
<path d="M50.6332 57.3092C50.1034 57.3092 49.6923 57.1748 49.3997 56.898C49.0992 56.6292 48.9569 56.2338 48.9569 55.7278C48.9569 55.4115 49.0202 55.1506 49.1467 54.9371C49.2732 54.7078 49.4709 54.5259 49.7476 54.3994C50.0402 54.2571 50.4118 54.1385 50.8546 54.0515C51.2341 53.9883 51.5188 53.9171 51.7085 53.8301C51.9141 53.751 52.0564 53.6641 52.1197 53.5771C52.1988 53.4743 52.2462 53.3399 52.2462 53.1659C52.2462 52.9366 52.1592 52.7548 51.9932 52.6283C51.8192 52.4859 51.5583 52.4069 51.2025 52.4069C50.8388 52.4069 50.5383 52.4859 50.2853 52.6283C50.0481 52.7548 49.8267 52.9603 49.6211 53.2292H49.5262L49.115 52.6915C49.3443 52.399 49.629 52.1697 49.969 51.9957C50.3248 51.8297 50.736 51.7427 51.2025 51.7427C51.835 51.7427 52.2936 51.885 52.5941 52.1538C52.8867 52.4306 53.0369 52.8101 53.0369 53.2924V56.1706C53.0369 56.471 53.1634 56.6134 53.4164 56.6134C53.4955 56.6134 53.5825 56.5976 53.6695 56.5501L53.7327 56.5817L53.8276 57.1194C53.7643 57.1669 53.6774 57.1985 53.5746 57.2143C53.4876 57.2301 53.3927 57.2459 53.2899 57.2459C52.9895 57.2459 52.7681 57.1827 52.6257 57.0562C52.4755 56.9296 52.3806 56.7399 52.3411 56.4869H52.2462C52.096 56.7636 51.8825 56.9771 51.6136 57.1194C51.3606 57.2459 51.0285 57.3092 50.6332 57.3092ZM50.823 56.6766C51.1155 56.6766 51.3685 56.6134 51.582 56.4869C51.8113 56.3445 51.9774 56.1389 52.0881 55.8859C52.2146 55.6329 52.2778 55.3483 52.2778 55.032V54.3362H52.183C52.0564 54.4231 51.9062 54.4943 51.7402 54.5576C51.5662 54.605 51.329 54.6445 51.0127 54.6841C50.6964 54.7315 50.4434 54.7948 50.2537 54.8738C50.0797 54.9608 49.9532 55.0794 49.8741 55.2217C49.8109 55.3483 49.7792 55.5222 49.7792 55.7278C49.7792 56.0441 49.8583 56.2892 50.0323 56.4552C50.222 56.6055 50.483 56.6766 50.823 56.6766Z" fill="black"/>
<path d="M56.4643 57.3092C56.1243 57.3092 55.808 57.2617 55.5154 57.1827C55.215 57.1036 54.9619 56.985 54.7564 56.8348C54.5666 56.6687 54.4401 56.4869 54.3768 56.2971L54.8196 55.791H54.9461C55.1122 56.0678 55.3099 56.2813 55.5471 56.4236C55.8001 56.5501 56.1005 56.6134 56.4643 56.6134C56.8438 56.6134 57.1364 56.5422 57.3498 56.392C57.5554 56.2259 57.6661 56.0045 57.6661 55.7278C57.6661 55.5222 57.6029 55.3483 57.4764 55.2217C57.3498 55.0794 57.1443 54.9687 56.8754 54.9055L55.9582 54.6524C55.468 54.5496 55.1122 54.3678 54.8829 54.1148C54.6694 53.8617 54.5666 53.5455 54.5666 53.1659C54.5666 52.8734 54.6378 52.6203 54.788 52.4069C54.9303 52.2013 55.1438 52.0431 55.4206 51.9324C55.7131 51.8059 56.0531 51.7427 56.4326 51.7427C56.9387 51.7427 57.3261 51.8217 57.6029 51.9641C57.8954 52.0906 58.1168 52.2724 58.2671 52.5017L57.8243 52.9445H57.7294C57.5554 52.7548 57.3657 52.6203 57.1601 52.5334C56.9703 52.4543 56.7252 52.4069 56.4326 52.4069C56.0689 52.4069 55.8001 52.4701 55.6103 52.5966C55.4364 52.7231 55.3573 52.905 55.3573 53.1343C55.3573 53.3478 55.4206 53.5297 55.5471 53.672C55.6736 53.7985 55.9029 53.9092 56.2429 53.9883L57.1285 54.2096C57.5871 54.3203 57.9271 54.4943 58.1405 54.7473C58.3461 55.0003 58.4568 55.3324 58.4568 55.7278C58.4568 56.0441 58.3778 56.3208 58.2354 56.5501C58.0852 56.7873 57.8559 56.9771 57.5396 57.1194C57.2392 57.2459 56.8833 57.3092 56.4643 57.3092Z" fill="black"/>
<path d="M62.614 56.3604L62.8671 56.9297C62.7406 57.0562 62.5666 57.1511 62.361 57.2144C62.1712 57.2776 61.9499 57.3092 61.6968 57.3092C60.661 57.3092 60.1471 56.7953 60.1471 55.7595V52.4702H59.2299V51.8376H60.1471V50.699L60.9378 50.5725V51.8376H62.6773V52.4702H60.9378V55.6646C60.9378 56.2972 61.2066 56.6134 61.7601 56.6134C62.0526 56.6134 62.3057 56.5344 62.5192 56.3604H62.614Z" fill="black"/>
<path d="M68.2043 54.7157H64.5038C64.5197 55.372 64.6778 55.8543 64.9783 56.1706C65.2708 56.471 65.6741 56.6134 66.1801 56.6134C66.5597 56.6134 66.8601 56.5501 67.0973 56.4236C67.3266 56.2813 67.5164 56.0599 67.6666 55.7594H67.7615L68.2676 56.0757C68.1173 56.4552 67.8643 56.7636 67.5085 56.9929C67.1685 57.2064 66.7257 57.3092 66.1801 57.3092C65.6504 57.3092 65.1997 57.2143 64.8201 57.0245C64.4564 56.8189 64.1717 56.5027 63.9662 56.0757C63.7764 55.6566 63.6815 55.1427 63.6815 54.5259C63.6815 53.9171 63.7843 53.4031 63.9978 52.9762C64.2034 52.5571 64.488 52.2487 64.8517 52.059C65.2313 51.8534 65.6504 51.7427 66.1169 51.7427C66.8127 51.7427 67.3503 51.9324 67.7299 52.312C68.1252 52.6915 68.3308 53.2766 68.3308 54.0515C68.3308 54.352 68.315 54.5496 68.2992 54.6524L68.2043 54.7157ZM67.5401 54.0515C67.5401 53.4822 67.4136 53.071 67.1606 52.818C66.9234 52.5492 66.5755 52.4069 66.1169 52.4069C65.6504 52.4069 65.2787 52.5492 65.0099 52.818C64.7569 53.071 64.5987 53.4822 64.5355 54.0515H67.5401Z" fill="black"/>
<path d="M74.5683 54.1151H71.785V53.3877H74.5683V54.1151Z" fill="black"/>
<path d="M79.9897 57.3092C79.6497 57.3092 79.3334 57.2617 79.0408 57.1827C78.7404 57.1036 78.4873 56.985 78.2818 56.8348C78.092 56.6687 77.9655 56.4869 77.9022 56.2971L78.345 55.791H78.4715C78.6376 56.0678 78.8352 56.2813 79.0725 56.4236C79.3255 56.5501 79.6259 56.6134 79.9897 56.6134C80.3692 56.6134 80.6618 56.5422 80.8752 56.392C81.0808 56.2259 81.1915 56.0045 81.1915 55.7278C81.1915 55.5222 81.1283 55.3483 81.0018 55.2217C80.8752 55.0794 80.6697 54.9687 80.4008 54.9055L79.4836 54.6524C78.9934 54.5496 78.6376 54.3678 78.4083 54.1148C78.1948 53.8617 78.092 53.5455 78.092 53.1659C78.092 52.8734 78.1632 52.6203 78.3134 52.4069C78.4557 52.2013 78.6692 52.0431 78.9459 51.9324C79.2385 51.8059 79.5785 51.7427 79.958 51.7427C80.4641 51.7427 80.8515 51.8217 81.1283 51.9641C81.4208 52.0906 81.6422 52.2724 81.7924 52.5017L81.3497 52.9445H81.2548C81.0808 52.7548 80.8911 52.6203 80.6855 52.5334C80.4957 52.4543 80.2506 52.4069 79.958 52.4069C79.5943 52.4069 79.3255 52.4701 79.1357 52.5966C78.9618 52.7231 78.8827 52.905 78.8827 53.1343C78.8827 53.3478 78.9459 53.5297 79.0725 53.672C79.199 53.7985 79.4283 53.9092 79.7683 53.9883L80.6538 54.2096C81.1125 54.3203 81.4524 54.4943 81.6659 54.7473C81.8715 55.0003 81.9822 55.3324 81.9822 55.7278C81.9822 56.0441 81.9031 56.3208 81.7608 56.5501C81.6106 56.7873 81.3813 56.9771 81.065 57.1194C80.7645 57.2459 80.4087 57.3092 79.9897 57.3092Z" fill="black"/>
<path d="M83.4525 57.2143V49.6553H84.2432V52.5967L84.3381 52.6283C84.7176 52.0432 85.2711 51.7427 86.0144 51.7427C86.6469 51.7427 87.1055 51.9167 87.406 52.2488C87.6986 52.565 87.8488 53.0632 87.8488 53.7353V57.2143H87.0581V53.7669C87.0581 53.4506 87.0106 53.1976 86.9316 53.0078C86.8446 52.8022 86.7102 52.652 86.5204 52.565C86.3465 52.4622 86.1251 52.4069 85.8562 52.4069C85.366 52.4069 84.9786 52.565 84.686 52.8813C84.3855 53.1976 84.2432 53.7274 84.2432 54.4627V57.2143H83.4525Z" fill="black"/>
<path d="M90.9222 57.3092C90.3925 57.3092 89.9813 57.1748 89.6888 56.898C89.3883 56.6292 89.246 56.2338 89.246 55.7278C89.246 55.4115 89.3092 55.1506 89.4357 54.9371C89.5623 54.7078 89.7599 54.5259 90.0367 54.3994C90.3292 54.2571 90.7009 54.1385 91.1436 54.0515C91.5232 53.9883 91.8078 53.9171 91.9976 53.8301C92.2032 53.751 92.3455 53.6641 92.4088 53.5771C92.4878 53.4743 92.5353 53.3399 92.5353 53.1659C92.5353 52.9366 92.4483 52.7548 92.2822 52.6283C92.1083 52.4859 91.8474 52.4069 91.4915 52.4069C91.1278 52.4069 90.8274 52.4859 90.5743 52.6283C90.3371 52.7548 90.1157 52.9603 89.9102 53.2292H89.8153L89.4041 52.6915C89.6334 52.399 89.9181 52.1697 90.2581 51.9957C90.6139 51.8297 91.025 51.7427 91.4915 51.7427C92.1241 51.7427 92.5827 51.885 92.8832 52.1538C93.1757 52.4306 93.326 52.8101 93.326 53.2924V56.1706C93.326 56.471 93.4525 56.6134 93.7055 56.6134C93.7846 56.6134 93.8715 56.5976 93.9585 56.5501L94.0218 56.5817L94.1167 57.1194C94.0534 57.1669 93.9664 57.1985 93.8636 57.2143C93.7767 57.2301 93.6818 57.2459 93.579 57.2459C93.2785 57.2459 93.0571 57.1827 92.9148 57.0562C92.7646 56.9296 92.6697 56.7399 92.6302 56.4869H92.5353C92.385 56.7636 92.1715 56.9771 91.9027 57.1194C91.6497 57.2459 91.3176 57.3092 90.9222 57.3092ZM91.112 56.6766C91.4046 56.6766 91.6576 56.6134 91.8711 56.4869C92.1004 56.3445 92.2664 56.1389 92.3771 55.8859C92.5036 55.6329 92.5669 55.3483 92.5669 55.032V54.3362H92.472C92.3455 54.4231 92.1953 54.4943 92.0292 54.5576C91.8553 54.605 91.6181 54.6445 91.3018 54.6841C90.9855 54.7315 90.7325 54.7948 90.5427 54.8738C90.3688 54.9608 90.2422 55.0794 90.1632 55.2217C90.0999 55.3483 90.0683 55.5222 90.0683 55.7278C90.0683 56.0441 90.1474 56.2892 90.3213 56.4552C90.5111 56.6055 90.772 56.6766 91.112 56.6766Z" fill="black"/>
<path d="M95.2299 57.2137V51.8369H95.9889V52.6909H96.0838C96.3368 52.0821 96.8113 51.7737 97.5071 51.7737C97.8629 51.7737 98.1396 51.8528 98.3294 51.9951L98.108 52.6593L98.0131 52.6909C97.7996 52.5881 97.5782 52.5328 97.3489 52.5328C96.9219 52.5328 96.5978 52.6909 96.3685 53.0072C96.1313 53.3234 96.0206 53.8532 96.0206 54.5886V57.2137H95.2299Z" fill="black"/>
<path d="M103.571 54.7157H99.871C99.8868 55.372 100.045 55.8543 100.345 56.1706C100.638 56.471 101.041 56.6134 101.547 56.6134C101.927 56.6134 102.227 56.5501 102.465 56.4236C102.694 56.2813 102.884 56.0599 103.034 55.7594H103.129L103.635 56.0757C103.485 56.4552 103.231 56.7636 102.876 56.9929C102.536 57.2064 102.093 57.3092 101.547 57.3092C101.018 57.3092 100.567 57.2143 100.187 57.0245C99.8236 56.8189 99.5389 56.5027 99.3334 56.0757C99.1436 55.6566 99.0487 55.1427 99.0487 54.5259C99.0487 53.9171 99.1515 53.4031 99.365 52.9762C99.5706 52.5571 99.8552 52.2487 100.219 52.059C100.598 51.8534 101.018 51.7427 101.484 51.7427C102.18 51.7427 102.718 51.9324 103.097 52.312C103.492 52.6915 103.698 53.2766 103.698 54.0515C103.698 54.352 103.682 54.5496 103.666 54.6524L103.571 54.7157ZM102.907 54.0515C102.907 53.4822 102.781 53.071 102.528 52.818C102.291 52.5492 101.943 52.4069 101.484 52.4069C101.018 52.4069 100.646 52.5492 100.377 52.818C100.124 53.071 99.9659 53.4822 99.9027 54.0515H102.907Z" fill="black"/>
</g>
<defs>
<clipPath id="clip0_1_80341">
<rect width="165.517" height="60" fill="white"/>
</clipPath>
</defs>
</svg>
